<?xml version="1.0" standalone="no"?>
<!DOCTYPE svg PUBLIC "-//W3C//DTD SVG 20010904//EN"
 "http://www.w3.org/TR/2001/REC-SVG-20010904/DTD/svg10.dtd">
<svg version="1.0" xmlns="http://www.w3.org/2000/svg"
 width="640.000000pt" height="640.000000pt" viewBox="0 0 640.000000 640.000000"
 preserveAspectRatio="xMidYMid meet">

<g transform="translate(0.000000,640.000000) scale(0.100000,-0.100000)"
fill="#000000" stroke="none">
<path d="M3855 4010 c-3 -6 1 -7 10 -4 11 5 14 2 9 -10 -3 -9 -11 -16 -17 -16
-7 0 -7 -4 1 -12 7 -7 12 -21 11 -32 0 -21 0 -21 -9 -1 -7 14 -8 8 -3 -20 7
-52 8 -52 26 -16 9 17 12 31 7 31 -9 0 -5 58 4 68 3 3 7 -8 7 -24 1 -21 3 -23
6 -9 3 11 13 25 22 32 14 10 13 11 -5 7 -12 -3 -25 -1 -28 5 -9 14 -33 14 -41
1z"/>
<path d="M4101 3971 c-9 -6 -10 -11 -2 -15 6 -4 11 -2 11 3 0 6 5 11 11 11 5
0 7 -5 3 -11 -3 -6 -1 -14 5 -18 8 -6 9 -15 2 -34 -7 -17 -7 -27 -1 -27 6 0
10 -9 10 -21 0 -12 -4 -18 -11 -13 -9 5 -10 -4 -5 -32 4 -23 3 -34 -2 -26 -7
10 -12 8 -26 -7 -15 -17 -15 -19 -1 -25 9 -3 13 -11 9 -17 -4 -8 -3 -9 5 -5 6
4 8 12 5 18 -5 7 -1 9 9 5 9 -3 16 -3 16 1 -4 25 4 41 21 44 19 3 19 5 5 32
-14 25 -14 27 0 16 9 -8 15 -8 15 -2 0 6 -4 13 -10 17 -6 4 -6 15 0 30 6 16 6
25 0 25 -6 0 -10 -5 -10 -12 0 -6 -2 -9 -5 -6 -10 10 7 38 19 31 6 -4 5 1 -3
10 -15 19 -26 23 -15 6 4 -7 1 -10 -7 -7 -8 3 -14 11 -14 18 0 17 -16 22 -34
11z"/>
<path d="M3892 3885 c0 -16 2 -22 5 -12 2 9 2 23 0 30 -3 6 -5 -1 -5 -18z"/>
<path d="M3841 3884 c0 -11 3 -14 6 -6 3 7 2 16 -1 19 -3 4 -6 -2 -5 -13z"/>
<path d="M3861 3843 c-1 -12 4 -34 9 -49 8 -19 8 -30 0 -38 -7 -7 -10 -3 -10
13 0 12 -4 19 -10 16 -6 -4 -8 7 -5 27 5 32 5 32 -4 5 -11 -32 -3 -99 10 -91
14 8 11 -6 -5 -21 -7 -8 -16 -11 -20 -8 -3 4 -6 -2 -6 -12 0 -17 1 -17 20 0
32 29 51 78 49 123 -2 22 -6 39 -10 36 -4 -2 -10 2 -12 8 -3 7 -6 3 -6 -9z"/>
<path d="M4329 3813 c-12 -16 -12 -17 1 -7 8 6 22 14 30 17 13 5 12 6 -1 6 -9
1 -23 -7 -30 -16z"/>
<path d="M4492 3783 c-10 -19 -5 -44 10 -54 6 -4 4 -23 -4 -48 -8 -23 -17 -38
-21 -35 -3 4 -1 -5 6 -19 10 -22 13 -24 19 -9 6 15 7 14 8 -3 1 -22 22 -55 35
-55 5 0 1 8 -8 18 -10 10 -15 21 -13 23 2 2 1 23 -4 47 -6 33 -4 47 7 58 8 8
12 20 10 27 -4 8 -6 7 -6 -3 -1 -10 -5 -8 -16 6 -8 12 -12 31 -10 43 5 26 -1
27 -13 4z"/>
<path d="M4280 3759 c0 -6 5 -7 11 -3 8 4 9 0 4 -15 -4 -12 -2 -21 4 -21 6 0
11 6 11 13 0 8 3 7 10 -3 5 -8 12 -12 15 -8 3 3 -1 12 -9 21 -8 8 -13 16 -11
19 2 2 -5 4 -15 5 -11 1 -20 -3 -20 -8z"/>
<path d="M4075 3741 c-3 -5 -2 -12 3 -15 5 -3 9 1 9 9 0 17 -3 19 -12 6z"/>
<path d="M3877 3711 c-4 -17 -3 -21 5 -13 5 5 8 16 6 23 -3 8 -7 3 -11 -10z"/>
<path d="M3970 3726 c0 -2 7 -7 16 -10 8 -3 12 -2 9 4 -6 10 -25 14 -25 6z"/>
<path d="M4045 3720 c-3 -5 1 -10 10 -10 9 0 13 5 10 10 -3 6 -8 10 -10 10 -2
0 -7 -4 -10 -10z"/>
<path d="M3841 3662 c-13 -25 -2 -75 15 -68 8 3 14 0 14 -6 0 -6 3 -8 6 -5 4
4 -1 19 -11 34 -12 18 -14 28 -7 31 14 4 16 32 2 32 -5 0 -14 -8 -19 -18z"/>
<path d="M4295 3630 c3 -5 14 -10 23 -10 15 0 15 2 2 10 -20 13 -33 13 -25 0z"/>
<path d="M3810 3616 c0 -8 5 -18 10 -21 6 -3 10 1 10 9 0 8 -4 18 -10 21 -5 3
-10 -1 -10 -9z"/>
<path d="M4260 3621 c0 -5 7 -12 16 -15 24 -9 27 -7 10 9 -17 17 -26 19 -26 6z"/>
<path d="M4365 3604 c-16 -8 -39 -24 -51 -35 -11 -10 -24 -16 -28 -12 -4 4 -4
0 0 -10 5 -15 11 -13 45 18 39 35 56 42 119 48 30 3 29 4 -10 5 -25 1 -58 -5
-75 -14z"/>
<path d="M4260 3590 c0 -5 5 -10 11 -10 5 0 7 5 4 10 -3 6 -8 10 -11 10 -2 0
-4 -4 -4 -10z"/>
<path d="M4487 3568 c-4 -16 -12 -28 -17 -28 -6 0 -10 -5 -10 -11 0 -5 5 -7
11 -3 8 4 9 -1 5 -17 -6 -20 -5 -21 4 -6 6 9 9 21 5 26 -3 5 -1 12 5 16 5 3
10 -1 10 -9 0 -8 4 -17 9 -20 5 -4 7 4 3 16 -3 14 -1 19 6 14 8 -5 10 -1 5 9
-4 13 -8 14 -13 4 -6 -8 -9 -4 -12 12 -3 24 -4 24 -11 -3z"/>
<path d="M3840 3572 c0 -10 32 -37 62 -53 14 -7 7 3 -16 25 -42 38 -46 41 -46
28z"/>
<path d="M4245 3560 c-4 -6 -3 -16 3 -23 5 -7 12 -21 15 -32 7 -20 7 -20 -8
-1 -13 17 -15 17 -15 4 0 -18 33 -33 49 -24 5 4 12 0 15 -6 3 -7 4 -4 3 7 -2
13 -9 19 -21 17 -13 -3 -16 1 -12 16 11 35 -13 68 -29 42z"/>
<path d="M3795 3550 c-3 -5 -1 -10 4 -10 6 0 11 5 11 10 0 6 -2 10 -4 10 -3 0
-8 -4 -11 -10z"/>
<path d="M3820 3551 c0 -6 5 -11 11 -11 5 0 7 -4 4 -10 -3 -5 -1 -10 5 -10 15
0 9 32 -7 38 -7 2 -13 -1 -13 -7z"/>
<path d="M4277 3463 c-4 -3 -7 -13 -7 -22 1 -13 3 -13 11 2 11 19 8 33 -4 20z"/>
<path d="M5070 3430 c-8 -5 -10 -10 -5 -10 6 0 17 5 25 10 8 5 11 10 5 10 -5
0 -17 -5 -25 -10z"/>
<path d="M5015 3400 c-3 -6 1 -7 9 -4 18 7 21 14 7 14 -6 0 -13 -4 -16 -10z"/>
<path d="M4962 3300 c0 -14 2 -19 5 -12 2 6 2 18 0 25 -3 6 -5 1 -5 -13z"/>
<path d="M4495 3240 c-22 -23 -50 -43 -62 -47 -23 -5 -32 -23 -12 -23 15 0 86
59 104 87 22 33 15 29 -30 -17z"/>
<path d="M1098 3225 c-41 -15 -87 -45 -88 -58 0 -4 13 2 28 13 56 42 151 60
121 24 -16 -20 5 -18 25 2 15 14 16 13 16 -9 0 -14 -7 -30 -15 -37 -17 -14
-21 -35 -4 -24 6 3 19 25 29 48 10 22 19 35 19 29 1 -7 6 -13 12 -13 6 0 8 7
5 16 -3 8 -2 12 4 9 6 -3 11 -21 11 -38 2 -30 2 -30 9 8 6 35 8 37 15 18 4
-13 12 -23 17 -23 6 0 7 7 4 16 -3 9 -6 20 -6 25 0 14 -160 9 -202 -6z"/>
<path d="M1340 3210 c19 -11 42 -19 50 -19 8 0 -3 9 -25 19 -53 24 -70 24 -25
0z"/>
<path d="M2180 3220 c-8 -5 -10 -10 -5 -10 6 0 17 5 25 10 8 5 11 10 5 10 -5
0 -17 -5 -25 -10z"/>
<path d="M2174 3186 c-10 -8 -17 -17 -14 -19 3 -3 16 3 29 14 27 22 15 26 -15
5z"/>
<path d="M2288 3193 c7 -3 16 -2 19 1 4 3 -2 6 -13 5 -11 0 -14 -3 -6 -6z"/>
<path d="M3965 3190 c-14 -7 -8 -8 20 -3 22 3 42 7 44 9 9 8 -45 2 -64 -6z"/>
<path d="M4161 3196 c2 -2 22 -6 44 -9 28 -5 34 -4 20 3 -19 8 -73 14 -64 6z"/>
<path d="M1231 3183 c0 -6 -4 -20 -7 -30 -5 -14 -4 -15 5 -7 7 7 11 20 8 30
-3 11 -5 14 -6 7z"/>
<path d="M1430 3165 c22 -24 30 -29 30 -22 0 8 -38 47 -45 47 -5 0 2 -11 15
-25z"/>
<path d="M4100 3184 c-92 -14 -90 -13 -86 -45 2 -16 7 -33 11 -37 5 -4 6 0 3
8 -3 8 -2 24 3 35 7 18 8 17 8 -6 1 -25 30 -75 31 -52 0 6 -4 15 -10 18 -5 3
-10 18 -10 33 1 26 1 27 17 7 15 -20 15 -20 10 3 -5 23 -5 23 14 6 10 -9 22
-14 26 -11 3 4 1 7 -5 7 -7 0 -12 5 -12 11 0 12 76 8 115 -6 17 -6 18 -5 3 4
-19 13 -95 28 -118 25z"/>
<path d="M2188 3165 c-8 -8 -50 -17 -76 -16 -16 1 -26 -6 -29 -19 -5 -18 -7
-18 -35 -4 -16 9 -32 14 -34 11 -2 -2 14 -12 35 -22 22 -9 52 -30 67 -46 34
-36 74 -39 74 -6 0 12 -7 32 -15 44 -13 19 -13 22 2 34 12 10 15 10 9 2 -8
-15 0 -15 29 -3 19 8 19 9 -3 9 -13 1 -20 5 -17 11 7 11 2 14 -7 5z"/>
<path d="M2275 3160 c11 -5 27 -9 35 -9 9 0 8 4 -5 9 -11 5 -27 9 -35 9 -9 0
-8 -4 5 -9z"/>
<path d="M2556 3143 c-6 -14 -5 -15 5 -6 7 7 10 15 7 18 -3 3 -9 -2 -12 -12z"/>
<path d="M3927 3131 c-27 -16 -55 -39 -64 -52 -13 -20 -12 -20 11 4 15 15 31
27 37 27 5 0 23 10 40 22 26 19 31 20 39 8 8 -13 10 -12 10 3 0 24 -17 21 -73
-12z"/>
<path d="M1822 3139 c-26 -8 -30 -12 -20 -23 11 -12 14 -12 21 0 11 18 28 18
21 0 -3 -8 -1 -23 5 -33 10 -17 11 -17 9 2 -1 11 0 29 1 40 l2 20 9 -20 c8
-19 9 -19 9 -1 1 20 1 20 17 0 15 -19 16 -19 9 0 -6 19 -5 19 13 3 22 -20 39
-23 23 -4 -6 8 -8 17 -4 20 10 10 -77 7 -115 -4z"/>
<path d="M1968 3143 c6 -2 18 -2 25 0 6 3 1 5 -13 5 -14 0 -19 -2 -12 -5z"/>
<path d="M4240 3147 c0 -3 17 -17 37 -33 20 -15 33 -23 29 -16 -8 13 -66 56
-66 49z"/>
<path d="M617 3117 c-12 -19 -12 -24 -2 -24 7 0 15 11 18 24 2 13 3 23 2 23
-2 0 -10 -10 -18 -23z"/>
<path d="M690 3131 c0 -6 7 -8 16 -4 14 5 16 1 12 -21 -4 -18 -1 -29 9 -33 11
-5 11 -9 -4 -27 -15 -18 -14 -18 7 2 17 15 21 25 14 30 -7 4 -14 18 -15 32 -4
24 -39 43 -39 21z"/>
<path d="M5721 3124 c0 -11 3 -14 6 -6 3 7 2 16 -1 19 -3 4 -6 -2 -5 -13z"/>
<path d="M2177 3119 c7 -7 15 -10 18 -7 3 3 -2 9 -12 12 -14 6 -15 5 -6 -5z"/>
<path d="M2280 3126 c0 -2 8 -10 18 -17 15 -13 16 -12 3 4 -13 16 -21 21 -21
13z"/>
<path d="M2245 3100 c21 -24 26 -25 19 -6 -3 8 -13 17 -22 21 -13 5 -13 2 3
-15z"/>
<path d="M3755 3100 c10 -11 20 -20 23 -20 3 0 -3 9 -13 20 -10 11 -20 20 -23
20 -3 0 3 -9 13 -20z"/>
<path d="M4086 3105 c4 -8 11 -15 16 -15 6 0 5 6 -2 15 -7 8 -14 15 -16 15 -2
0 -1 -7 2 -15z"/>
<path d="M4431 3104 c0 -11 3 -14 6 -6 3 7 2 16 -1 19 -3 4 -6 -2 -5 -13z"/>
<path d="M4556 3093 c5 -5 12 -12 16 -18 4 -6 8 -2 8 8 0 9 -7 17 -17 17 -9 0
-12 -3 -7 -7z"/>
<path d="M1504 3074 c3 -9 6 -18 6 -20 0 -2 5 -4 11 -4 5 0 7 5 3 11 -3 6 0
15 7 20 10 6 8 9 -10 9 -17 0 -22 -4 -17 -16z"/>
<path d="M1870 3081 c0 -5 5 -13 10 -16 6 -3 10 -2 10 4 0 5 -4 13 -10 16 -5
3 -10 2 -10 -4z"/>
<path d="M1910 3082 c0 -5 7 -15 15 -22 8 -7 15 -8 15 -2 0 5 -7 15 -15 22 -8
7 -15 8 -15 2z"/>
<path d="M3815 3059 c-9 -17 -15 -34 -13 -39 2 -5 11 9 20 30 20 47 15 53 -7
9z"/>
<path d="M2854 3068 c-33 -7 -43 -14 -47 -34 -4 -24 -4 -24 16 -7 20 18 20 17
13 -22 -5 -29 -4 -36 3 -25 6 8 11 28 11 43 0 16 4 26 10 22 6 -3 10 0 10 7 1
7 8 2 16 -12 15 -25 15 -25 10 -2 -3 18 -1 22 11 18 9 -4 13 -1 11 6 -6 16
-16 17 -64 6z"/>
<path d="M4354 3056 c-1 -18 2 -22 16 -19 17 5 17 6 2 24 -9 10 -17 19 -17 19
0 0 -1 -11 -1 -24z"/>
<path d="M2463 3054 c-3 -8 -3 -39 1 -69 l6 -53 -38 -4 c-20 -3 -45 -8 -54
-12 -14 -6 -18 -4 -18 10 0 14 -4 11 -15 -10 -20 -38 -19 -39 13 -23 38 20 94
28 112 17 8 -5 12 -10 8 -10 -4 0 5 -35 21 -77 19 -55 39 -91 69 -123 23 -25
41 -49 39 -55 -2 -6 -41 -10 -88 -10 -80 0 -84 1 -87 23 -3 17 2 22 17 22 23
0 28 19 9 38 -15 15 -45 16 -54 1 -3 -6 -2 -15 4 -21 32 -32 -35 -53 -70 -21
-10 9 -18 11 -18 5 0 -6 10 -18 22 -26 22 -16 21 -16 -19 -16 -44 0 -58 10
-68 52 -5 20 -3 27 12 31 17 4 17 5 -1 6 -14 1 -17 7 -14 26 3 14 2 25 -2 25
-17 0 -15 -61 2 -111 30 -87 31 -89 19 -89 -6 0 -11 6 -12 13 0 6 -5 1 -10
-13 -8 -20 -12 -22 -19 -10 -6 9 -10 10 -10 3 0 -17 21 -27 30 -14 4 7 13 11
21 9 8 -2 15 7 17 19 3 22 4 22 155 17 149 -5 365 -17 622 -34 72 -5 229 -8
350 -8 204 2 210 2 80 7 -78 4 -149 11 -160 18 -53 30 -115 121 -115 168 0 23
-3 27 -10 15 -5 -8 -10 -26 -10 -40 0 -14 -9 -43 -19 -64 l-20 -38 21 18 21
19 -18 -27 c-9 -16 -26 -28 -37 -28 -10 0 -16 -4 -13 -10 4 -6 -12 -10 -41
-10 l-48 0 42 36 c43 36 64 68 76 114 4 14 -5 1 -21 -29 -15 -30 -45 -68 -66
-84 l-37 -31 -153 13 c-83 7 -162 13 -174 12 -50 -2 -180 199 -171 263 3 20 6
19 36 -11 34 -33 52 -41 52 -23 0 5 -4 9 -9 8 -4 -2 -29 16 -55 39 -42 38 -46
46 -46 88 0 26 -5 55 -10 66 -13 23 -38 25 -47 3z m-43 -404 c0 -5 -10 -10
-22 -9 -22 0 -22 1 -3 9 11 5 21 9 23 9 1 1 2 -3 2 -9z"/>
<path d="M2958 3063 c6 -2 18 -2 25 0 6 3 1 5 -13 5 -14 0 -19 -2 -12 -5z"/>
<path d="M3290 3048 c-26 -13 -30 -18 -14 -18 20 0 63 25 54 32 -3 2 -21 -4
-40 -14z"/>
<path d="M3782 3050 c0 -14 2 -19 5 -12 2 6 2 18 0 25 -3 6 -5 1 -5 -13z"/>
<path d="M5731 3054 c0 -11 3 -14 6 -6 3 7 2 16 -1 19 -3 4 -6 -2 -5 -13z"/>
<path d="M898 3053 c6 -2 18 -2 25 0 6 3 1 5 -13 5 -14 0 -19 -2 -12 -5z"/>
<path d="M1551 3050 c7 -5 14 -16 15 -24 3 -18 2 -18 -21 -10 -13 5 -14 8 -3
15 10 7 9 9 -4 9 -11 0 -18 -7 -18 -17 0 -24 12 -38 30 -38 21 0 24 -36 6 -60
-15 -19 -15 -18 -17 15 -1 29 -3 24 -15 -28 -19 -86 -38 -124 -87 -169 -58
-54 -136 -77 -235 -71 -90 5 -145 29 -211 92 -41 38 -42 39 -20 8 13 -18 38
-42 56 -53 18 -12 33 -25 33 -30 0 -5 6 -9 13 -9 10 0 51 -90 44 -96 -1 -1
-19 -4 -39 -8 -32 -6 -38 -4 -38 10 0 17 -1 17 -12 1 -8 -10 -37 -21 -73 -26
-50 -8 -42 -9 45 -4 58 3 112 7 120 8 8 2 48 4 88 4 65 1 72 3 72 21 0 17 -3
18 -26 9 -34 -12 -38 -8 -23 25 13 28 34 34 42 14 4 -9 6 -8 6 3 1 10 19 20
51 28 91 23 180 113 196 197 4 20 14 36 25 39 10 4 19 11 19 16 0 5 14 9 30 9
18 0 30 5 30 13 0 7 8 29 19 49 18 37 18 38 -1 55 -16 14 -23 15 -39 5 -10 -7
-19 -8 -19 -3 0 5 -12 9 -26 9 -17 0 -22 -3 -13 -8z m-417 -399 c10 -11 15
-25 11 -30 -11 -19 -23 -12 -34 19 -11 34 -2 39 23 11z m56 0 c0 -19 -22 -23
-38 -7 -15 15 -14 16 11 16 15 0 27 -4 27 -9z m29 -23 c-16 -30 -28 -38 -63
-38 -24 0 -27 2 -16 15 7 9 18 14 23 12 6 -2 19 5 29 15 26 26 41 23 27 -4z"/>
<path d="M3020 3055 c0 -2 10 -10 23 -16 20 -11 21 -11 8 4 -13 16 -31 23 -31
12z"/>
<path d="M1095 3040 c-3 -6 1 -7 9 -4 18 7 21 14 7 14 -6 0 -13 -4 -16 -10z"/>
<path d="M2737 3018 c-18 -18 -24 -26 -13 -17 12 9 35 24 51 32 20 11 24 16
12 17 -9 0 -32 -15 -50 -32z"/>
<path d="M3123 3043 c-20 -7 -15 -31 8 -43 11 -7 23 -9 26 -7 2 3 -5 8 -17 12
-40 13 -15 30 41 28 40 -1 48 1 29 7 -28 9 -69 11 -87 3z"/>
<path d="M4533 3043 c-19 -7 -16 -21 10 -34 19 -11 20 -10 10 3 -10 11 -10 17
-1 26 12 12 3 15 -19 5z"/>
<path d="M4650 3039 c0 -5 5 -7 10 -4 6 3 10 8 10 11 0 2 -4 4 -10 4 -5 0 -10
-5 -10 -11z"/>
<path d="M4723 3040 c-37 -15 -26 -18 19 -6 28 8 42 8 45 1 2 -6 19 -9 38 -7
19 2 32 8 29 13 -7 12 -102 11 -131 -1z"/>
<path d="M4896 3034 c-4 -9 -4 -19 -1 -22 2 -3 7 3 11 12 4 9 4 19 1 22 -2 3
-7 -3 -11 -12z"/>
<path d="M1325 3020 c27 -12 43 -12 25 0 -8 5 -22 9 -30 9 -10 0 -8 -3 5 -9z"/>
<path d="M3364 3016 c11 -9 24 -16 30 -16 12 0 7 5 -24 19 -24 11 -24 11 -6
-3z"/>
<path d="M3680 3003 c-13 -17 -19 -35 -16 -49 5 -18 1 -24 -19 -27 -24 -4 -24
-4 2 -3 16 1 36 -8 50 -21 24 -25 71 -30 103 -13 12 7 21 7 25 0 3 -5 35 -26
70 -46 36 -19 68 -40 71 -46 15 -24 -16 -26 -90 -7 -43 11 -80 18 -82 16 -3
-2 35 -15 83 -27 49 -13 108 -34 132 -47 74 -39 174 -22 226 37 15 17 8 14
-27 -10 -62 -44 -129 -51 -191 -21 -34 16 -44 26 -40 40 5 21 -31 53 -107 94
-45 24 -50 30 -39 44 12 13 7 22 -35 60 -36 32 -54 42 -69 37 -13 -4 -17 -2
-13 5 15 23 -13 10 -34 -16z m138 -83 c-7 -10 -14 -17 -17 -15 -4 4 18 35 25
35 2 0 -1 -9 -8 -20z m-78 -5 c7 -9 8 -15 2 -15 -5 0 -12 7 -16 15 -3 8 -4 15
-2 15 2 0 9 -7 16 -15z m45 -15 c-3 -5 -10 -10 -16 -10 -5 0 -9 5 -9 10 0 6 7
10 16 10 8 0 12 -4 9 -10z"/>
<path d="M881 3004 c0 -12 6 -27 14 -34 10 -9 15 -9 15 -1 0 6 -4 11 -9 11 -5
0 -12 10 -14 23 -4 21 -4 21 -6 1z"/>
<path d="M1113 3004 c-8 -21 13 -42 28 -27 13 13 5 43 -11 43 -6 0 -13 -7 -17
-16z"/>
<path d="M5742 2995 c0 -16 2 -22 5 -12 2 9 2 23 0 30 -3 6 -5 -1 -5 -18z"/>
<path d="M4392 2985 c-7 -14 -11 -40 -11 -58 l1 -32 8 35 c5 19 11 45 15 58
10 30 1 28 -13 -3z"/>
<path d="M1311 2986 c-14 -17 -7 -36 14 -36 22 0 29 20 13 36 -13 13 -16 13
-27 0z"/>
<path d="M3420 2990 c8 -5 20 -10 25 -10 6 0 3 5 -5 10 -8 5 -19 10 -25 10 -5
0 -3 -5 5 -10z"/>
<path d="M5145 2995 c-5 -2 -27 -6 -48 -10 -32 -5 -36 -9 -27 -20 7 -8 10 -21
7 -29 -3 -8 -3 -17 1 -20 3 -4 11 8 16 26 8 24 18 34 36 36 20 3 23 1 13 -9
-7 -7 -13 -17 -13 -21 0 -5 11 3 25 17 23 22 34 25 95 25 45 0 70 -4 73 -12 4
-9 6 -9 6 -1 1 7 21 10 64 8 55 -3 57 -3 22 5 -38 8 -249 12 -270 5z"/>
<path d="M4780 2979 c0 -5 5 -7 10 -4 6 3 10 8 10 11 0 2 -4 4 -10 4 -5 0 -10
-5 -10 -11z"/>
<path d="M1988 2973 c7 -3 16 -2 19 1 4 3 -2 6 -13 5 -11 0 -14 -3 -6 -6z"/>
<path d="M2221 2958 c0 -14 -7 -29 -13 -31 -10 -4 -10 -6 0 -6 16 -1 25 22 19
46 -3 12 -5 9 -6 -9z"/>
<path d="M2350 2972 c0 -6 9 -12 20 -15 11 -3 20 -3 20 -1 0 2 -9 8 -20 14
-11 6 -20 7 -20 2z"/>
<path d="M4155 2970 c-4 -7 -3 -16 3 -22 14 -14 45 -2 40 15 -6 16 -34 21 -43
7z"/>
<path d="M4921 2966 c-11 -13 -11 -16 0 -16 11 0 11 -2 -1 -10 -13 -8 -13 -10
2 -10 22 0 31 16 20 36 -8 14 -10 14 -21 0z"/>
<path d="M5470 2973 c8 -3 26 -15 39 -27 13 -11 21 -15 17 -8 -5 8 0 12 12 12
18 0 32 -18 32 -40 0 -5 -8 -11 -17 -13 -14 -4 -12 -5 5 -6 17 -1 22 4 22 24
0 28 20 33 43 10 8 -8 17 -12 20 -9 3 3 13 1 24 -5 10 -5 26 -12 37 -15 11 -4
16 -12 12 -21 -8 -21 29 -39 52 -26 15 10 14 10 -5 8 -12 -1 -21 1 -20 4 8 25
-64 64 -179 98 -63 19 -137 30 -94 14z"/>
<path d="M2320 2955 c-6 -8 -10 -19 -8 -24 1 -6 8 1 15 14 13 28 11 31 -7 10z"/>
<path d="M3225 2960 c3 -5 13 -10 21 -10 8 0 12 5 9 10 -3 6 -13 10 -21 10 -8
0 -12 -4 -9 -10z"/>
<path d="M4980 2960 c0 -5 5 -10 10 -10 6 0 10 5 10 10 0 6 -4 10 -10 10 -5 0
-10 -4 -10 -10z"/>
<path d="M5016 2954 c-8 -22 -4 -25 11 -9 7 8 9 16 4 19 -5 3 -12 -1 -15 -10z"/>
<path d="M5746 2951 c-4 -7 -5 -15 -2 -18 9 -9 19 4 14 18 -4 11 -6 11 -12 0z"/>
<path d="M4860 2946 c0 -3 9 -10 20 -16 11 -6 20 -8 20 -6 0 3 -9 10 -20 16
-11 6 -20 8 -20 6z"/>
<path d="M706 2920 c11 -44 54 -104 104 -145 13 -11 5 3 -19 30 -24 28 -54 70
-67 95 -14 25 -22 34 -18 20z"/>
<path d="M1006 2924 c-17 -12 -17 -14 -4 -14 9 0 20 5 23 11 11 17 2 18 -19 3z"/>
<path d="M1976 2925 c-3 -9 1 -18 10 -22 19 -7 39 11 30 26 -10 16 -33 13 -40
-4z"/>
<path d="M4564 2923 c-18 -55 -31 -81 -67 -127 -37 -47 -37 -49 -8 -21 18 17
40 42 49 58 9 15 22 27 28 27 7 0 10 8 7 19 -3 10 0 28 6 40 8 15 8 21 1 21
-6 0 -13 -8 -16 -17z"/>
<path d="M1785 2920 c-3 -6 1 -7 9 -4 18 7 21 14 7 14 -6 0 -13 -4 -16 -10z"/>
<path d="M3193 2922 c-7 -5 -9 -13 -3 -21 9 -16 2 -42 -14 -53 -8 -5 -7 -8 1
-8 17 0 35 37 31 65 -2 16 -7 22 -15 17z"/>
<path d="M3975 2919 c-8 -12 14 -31 30 -26 6 2 10 10 10 18 0 17 -31 24 -40 8z"/>
<path d="M1420 2895 c7 -8 17 -15 22 -15 6 0 5 7 -2 15 -7 8 -17 15 -22 15 -6
0 -5 -7 2 -15z"/>
<path d="M1795 2890 c-4 -7 -3 -16 3 -22 14 -14 45 -2 40 15 -6 16 -34 21 -43
7z"/>
<path d="M2092 2868 c5 -15 28 -23 28 -10 0 5 -7 13 -16 16 -10 4 -14 1 -12
-6z"/>
<path d="M3417 2874 c-14 -15 -6 -34 14 -34 14 0 19 5 17 17 -3 18 -20 27 -31
17z"/>
<path d="M4727 2874 c-13 -13 -7 -24 14 -24 11 0 19 5 17 12 -5 14 -22 21 -31
12z"/>
<path d="M4910 2873 c0 -14 68 -123 76 -123 3 0 -3 15 -14 33 -11 17 -29 48
-41 67 -11 19 -21 29 -21 23z"/>
<path d="M2807 2854 c-14 -14 -7 -35 11 -32 9 2 17 10 17 17 0 16 -18 25 -28
15z"/>
<path d="M2965 2850 c-3 -5 3 -10 14 -10 12 0 21 5 21 10 0 6 -6 10 -14 10 -8
0 -18 -4 -21 -10z"/>
<path d="M5033 2825 c0 -22 2 -30 4 -17 2 12 2 30 0 40 -3 9 -5 -1 -4 -23z"/>
<path d="M5236 2853 c-12 -12 -6 -33 9 -33 8 0 15 6 15 14 0 17 -14 28 -24 19z"/>
<path d="M1049 2835 c14 -30 52 -62 93 -80 78 -32 173 -10 233 55 l30 33 -48
-36 c-81 -62 -154 -70 -238 -27 -20 11 -47 32 -58 47 -12 15 -18 19 -12 8z"/>
<path d="M4867 2835 c-8 -18 11 -31 25 -17 11 11 3 32 -12 32 -4 0 -10 -7 -13
-15z"/>
<path d="M5050 2837 c0 -9 5 -19 10 -22 6 -4 8 -11 5 -16 -4 -5 -2 -9 4 -9 19
0 19 15 0 39 -14 17 -19 19 -19 8z"/>
<path d="M5386 2843 c-12 -12 -6 -33 9 -33 8 0 15 6 15 14 0 17 -14 28 -24 19z"/>
<path d="M1580 2825 c0 -15 21 -35 37 -35 7 0 13 8 13 18 0 14 -2 15 -10 2 -8
-13 -11 -12 -24 5 -9 11 -16 15 -16 10z"/>
<path d="M4256 2813 c-6 -14 -5 -15 5 -6 7 7 10 15 7 18 -3 3 -9 -2 -12 -12z"/>
<path d="M4645 2820 c-3 -5 -1 -10 4 -10 6 0 11 5 11 10 0 6 -2 10 -4 10 -3 0
-8 -4 -11 -10z"/>
<path d="M5581 2823 c-1 -6 -4 -20 -7 -30 -5 -17 -5 -17 6 0 6 10 9 23 6 30
-3 9 -5 9 -5 0z"/>
<path d="M3080 2810 c0 -5 5 -10 11 -10 5 0 7 5 4 10 -3 6 -8 10 -11 10 -2 0
-4 -4 -4 -10z"/>
<path d="M3310 2810 c-13 -8 -12 -10 3 -10 9 0 17 5 17 10 0 12 -1 12 -20 0z"/>
<path d="M3580 2800 c0 -15 5 -20 18 -18 9 2 17 10 17 18 0 8 -8 16 -17 18
-13 2 -18 -3 -18 -18z"/>
<path d="M1712 2795 c-10 -12 -10 -15 2 -15 7 0 16 7 20 15 7 19 -5 19 -22 0z"/>
<path d="M2390 2800 c0 -5 5 -10 10 -10 6 0 10 5 10 10 0 6 -4 10 -10 10 -5 0
-10 -4 -10 -10z"/>
<path d="M2610 2790 c6 -11 15 -20 20 -20 6 0 2 9 -7 20 -10 11 -19 20 -21 20
-1 0 2 -9 8 -20z"/>
<path d="M5676 2752 c-30 -34 -37 -45 -17 -27 30 27 77 85 69 85 -2 0 -25 -26
-52 -58z"/>
<path d="M4430 2791 c0 -6 5 -13 10 -16 6 -3 10 1 10 9 0 9 -4 16 -10 16 -5 0
-10 -4 -10 -9z"/>
<path d="M5155 2780 c-3 -5 -1 -10 4 -10 6 0 11 5 11 10 0 6 -2 10 -4 10 -3 0
-8 -4 -11 -10z"/>
<path d="M3830 2774 c0 -4 16 -27 36 -51 40 -49 92 -79 153 -89 25 -4 46 -14
51 -25 15 -26 13 -29 -20 -29 -16 0 -30 -4 -30 -9 0 -6 21 -8 48 -5 63 7 1042
7 1112 1 30 -3 118 -8 195 -12 77 -3 151 -8 165 -11 18 -3 21 -2 11 5 -7 5
-56 12 -107 16 -54 4 -94 11 -94 17 0 7 -19 8 -52 5 -29 -4 -45 -3 -35 1 14 6
9 10 -22 18 -22 6 -38 7 -35 3 3 -5 12 -9 20 -9 8 0 14 -4 14 -10 0 -5 -15 -7
-32 -5 -18 2 -73 5 -123 6 -49 1 -94 5 -100 8 -5 3 -28 4 -50 2 l-40 -2 31 19
c31 20 94 90 94 104 0 5 -4 8 -10 8 -5 0 -10 -7 -10 -15 0 -8 -14 -30 -31 -50
-59 -67 -182 -80 -279 -29 -35 19 -40 20 -22 5 12 -11 22 -22 22 -26 0 -3 -28
-5 -62 -5 -35 1 -93 -1 -130 -5 -54 -6 -68 -4 -68 6 0 10 -2 11 -8 2 -4 -7
-51 -14 -115 -19 l-108 -7 7 29 c3 16 16 36 28 44 11 8 41 35 66 59 l45 44
-44 -38 c-73 -62 -123 -80 -226 -80 -81 0 -95 3 -138 28 -26 15 -59 46 -74 68
-25 38 -33 46 -33 33z m323 -155 c-7 -7 -19 -8 -30 -4 -16 7 -15 9 7 15 30 8
38 4 23 -11z m40 0 c-5 -20 -29 -36 -38 -27 -6 6 24 48 35 48 4 0 6 -9 3 -21z
m-84 -12 c6 -8 8 -17 4 -20 -11 -12 -21 -7 -26 13 -6 23 5 26 22 7z"/>
<path d="M4940 2765 c0 -8 4 -15 10 -15 5 0 7 7 4 15 -4 8 -8 15 -10 15 -2 0
-4 -7 -4 -15z"/>
<path d="M5038 2773 c-10 -2 -18 -9 -18 -14 0 -6 8 -5 20 1 11 6 20 13 20 15
0 3 -1 4 -2 4 -2 -1 -11 -3 -20 -6z"/>
<path d="M5470 2770 c0 -5 5 -10 11 -10 5 0 7 5 4 10 -3 6 -8 10 -11 10 -2 0
-4 -4 -4 -10z"/>
<path d="M2737 2763 c-4 -3 -7 -11 -7 -17 0 -6 5 -5 12 2 6 6 9 14 7 17 -3 3
-9 2 -12 -2z"/>
<path d="M2049 2734 c-46 -50 -138 -69 -206 -43 -23 8 -26 8 -15 -3 8 -8 39
-13 86 -13 60 0 78 4 108 24 19 14 41 33 47 43 16 25 9 22 -20 -8z"/>
<path d="M2640 2725 c1 -26 2 -28 11 -12 8 14 8 22 0 30 -8 8 -11 3 -11 -18z"/>
<path d="M3751 2743 c0 -6 -4 -18 -7 -26 -3 -10 0 -15 8 -13 21 3 38 16 37 29
0 9 -2 9 -6 0 -7 -18 -21 -16 -26 5 -3 9 -5 12 -6 5z"/>
<path d="M5536 2723 c-6 -14 -5 -15 5 -6 7 7 10 15 7 18 -3 3 -9 -2 -12 -12z"/>
<path d="M1664 2705 c8 -17 23 -39 35 -49 12 -11 21 -29 21 -40 0 -23 -22 -22
398 -7 21 1 32 6 32 16 0 10 -10 15 -32 15 l-33 0 30 25 c17 13 26 24 21 25
-6 0 -21 -11 -35 -24 -25 -23 -35 -25 -191 -31 l-165 -7 -30 29 c-16 15 -38
39 -48 53 l-17 25 14 -30z"/>
<path d="M1780 2726 c0 -2 8 -10 18 -17 15 -13 16 -12 3 4 -13 16 -21 21 -21
13z"/>
<path d="M3009 2708 c-35 -26 -102 -39 -159 -28 -56 10 -64 5 -13 -9 68 -19
134 -7 180 34 34 30 28 32 -8 3z"/>
<path d="M3660 2722 c0 -12 19 -26 26 -19 2 2 -2 10 -11 17 -9 8 -15 8 -15 2z"/>
<path d="M4402 2700 c0 -14 2 -19 5 -12 2 6 2 18 0 25 -3 6 -5 1 -5 -13z"/>
<path d="M4600 2711 c0 -6 4 -13 10 -16 6 -3 7 1 4 9 -7 18 -14 21 -14 7z"/>
<path d="M920 2695 c0 -8 73 -36 78 -30 3 3 3 5 0 5 -3 0 -22 7 -42 15 -20 8
-36 13 -36 10z"/>
<path d="M3355 2677 c27 -42 84 -67 147 -65 53 1 53 2 8 5 -72 5 -88 11 -132
51 -37 33 -39 34 -23 9z"/>
<path d="M5220 2681 c14 -11 30 -21 35 -21 11 0 -7 14 -40 31 -13 7 -12 3 5
-10z"/>
<path d="M4315 2664 c-27 -13 -39 -21 -25 -18 29 8 80 32 80 39 0 6 4 8 -55
-21z"/>
<path d="M4735 2675 c17 -8 46 -14 65 -13 l35 1 -40 6 c-22 4 -51 10 -65 14
-20 5 -19 4 5 -8z"/>
<path d="M5080 2661 c14 -11 30 -21 35 -21 11 0 -7 14 -40 31 -13 7 -12 3 5
-10z"/>
<path d="M5380 2670 c-9 -6 -10 -10 -3 -10 6 0 15 5 18 10 8 12 4 12 -15 0z"/>
<path d="M5491 2656 c-13 -14 -36 -30 -52 -37 -16 -6 -28 -14 -25 -16 7 -8 60
24 85 51 14 14 22 26 19 26 -2 0 -15 -11 -27 -24z"/>
<path d="M4412 2650 c0 -14 2 -19 5 -12 2 6 2 18 0 25 -3 6 -5 1 -5 -13z"/>
<path d="M1589 2639 c-19 -19 -34 -22 -119 -23 -85 -1 -96 -3 -92 -18 3 -14
15 -16 93 -11 74 5 92 3 102 -9 7 -9 22 -19 34 -22 20 -6 21 -5 10 17 -10 22
-13 23 -24 8 -11 -14 -12 -14 -13 5 0 12 9 33 21 48 25 31 17 34 -12 5z"/>
<path d="M3585 2639 c-16 -10 -25 -19 -19 -19 7 0 22 9 35 20 30 24 23 24 -16
-1z"/>
<path d="M5293 2653 c15 -2 37 -2 50 0 12 2 0 4 -28 4 -27 0 -38 -2 -22 -4z"/>
<path d="M3705 2640 c-3 -5 -1 -10 4 -10 6 0 11 5 11 10 0 6 -2 10 -4 10 -3 0
-8 -4 -11 -10z"/>
<path d="M4501 2634 c0 -11 3 -14 6 -6 3 7 2 16 -1 19 -3 4 -6 -2 -5 -13z"/>
<path d="M2850 2630 c-9 -6 -10 -10 -3 -10 6 0 15 5 18 10 8 12 4 12 -15 0z"/>
<path d="M3769 2594 c21 -27 29 -74 13 -74 -5 0 -14 10 -20 23 -10 22 -11 22
-11 -5 -1 -18 -6 -28 -16 -28 -8 0 -14 -3 -14 -7 3 -19 -2 -33 -11 -33 -5 0
-10 9 -10 20 0 12 -7 20 -16 20 -11 0 -15 6 -11 20 3 11 1 20 -3 20 -14 0 -18
-24 -7 -42 8 -12 6 -23 -6 -42 -23 -35 -21 -43 3 -15 16 20 19 21 20 7 0 -22
13 -23 30 -3 16 20 27 19 33 -2 3 -10 5 -1 6 21 1 32 4 37 19 31 9 -4 27 -7
40 -6 14 0 21 -3 16 -10 -3 -6 -15 -9 -25 -6 -19 5 -36 -24 -24 -43 8 -12 42
-13 49 -1 3 5 -2 8 -11 7 -9 0 -18 5 -20 12 -3 6 2 12 9 12 8 0 23 7 34 15 16
12 17 16 5 24 -8 5 -20 7 -28 4 -9 -3 -13 3 -13 21 0 25 3 26 51 26 38 0 55
-5 65 -17 7 -10 16 -14 20 -10 5 4 2 12 -5 16 -7 5 -11 13 -8 17 3 5 -23 8
-57 6 -58 -3 -64 -2 -80 22 -9 14 -21 26 -27 26 -6 0 -1 -12 10 -26z"/>
<path d="M1680 2585 c0 -8 7 -15 16 -15 14 0 14 3 4 15 -7 8 -14 15 -16 15 -2
0 -4 -7 -4 -15z"/>
<path d="M2165 2591 c-3 -5 -1 -12 5 -16 5 -3 10 1 10 9 0 18 -6 21 -15 7z"/>
<path d="M5360 2596 c0 -2 11 -6 25 -8 13 -3 22 -1 19 3 -5 9 -44 13 -44 5z"/>
<path d="M1296 2565 c-3 -8 -1 -15 4 -15 6 0 10 7 10 15 0 8 -2 15 -4 15 -2 0
-6 -7 -10 -15z"/>
<path d="M1360 2559 c0 -11 27 -12 34 -1 2 4 -4 9 -15 9 -10 1 -19 -2 -19 -8z"/>
<path d="M1766 2518 c-8 -18 -16 -44 -20 -58 -6 -25 -6 -25 5 -2 7 12 20 22
29 22 23 0 54 36 47 55 -11 28 -47 18 -61 -17z m50 10 c9 -15 -27 -41 -40 -28
-6 6 -5 15 4 25 15 18 26 19 36 3z"/>
<path d="M4157 2543 c-4 -3 -7 -13 -7 -22 1 -13 3 -13 11 2 11 19 8 33 -4 20z"/>
<path d="M2025 2477 c0 -39 0 -39 11 -12 6 15 16 30 23 35 9 5 5 9 -11 12 -21
4 -23 1 -23 -35z"/>
<path d="M2536 2468 c-8 -29 -13 -54 -11 -57 3 -2 5 1 5 7 0 7 8 12 18 12 20
0 45 24 55 53 5 13 0 20 -19 27 -14 6 -27 10 -29 10 -2 0 -10 -23 -19 -52z
m57 12 c-6 -22 -39 -45 -46 -33 -9 16 13 53 32 53 14 0 18 -5 14 -20z"/>
<path d="M3065 2498 c-34 -26 -31 -63 5 -63 20 0 28 7 37 35 7 19 13 36 13 36
0 1 -6 4 -14 7 -8 3 -27 -3 -41 -15z m35 -2 c0 -16 -21 -56 -30 -56 -17 0 -23
29 -10 45 11 14 40 21 40 11z"/>
<path d="M3156 2499 c-44 -34 -25 -88 21 -59 16 10 16 10 -4 5 -37 -10 -36 14
2 29 19 8 35 19 35 24 0 20 -30 20 -54 1z m24 -9 c-20 -13 -33 -13 -25 0 3 6
14 10 23 10 15 0 15 -2 2 -10z"/>
<path d="M3460 2507 c-14 -7 -25 -21 -25 -32 0 -10 -6 -20 -13 -23 -6 -2 -12
-8 -12 -13 0 -5 11 -2 25 7 24 15 25 15 26 -2 0 -13 6 -7 15 15 21 48 16 64
-16 48z m10 -22 c0 -8 -4 -15 -10 -15 -5 0 -10 7 -10 15 0 8 5 15 10 15 6 0
10 -7 10 -15z"/>
<path d="M3960 2510 c0 -5 4 -10 9 -10 6 0 6 -12 0 -32 -12 -44 -4 -47 11 -4
7 22 18 36 28 37 14 0 13 2 -3 9 -28 12 -45 12 -45 0z"/>
<path d="M1844 2485 c-17 -27 -13 -55 9 -55 22 0 44 23 51 53 6 24 4 27 -19
27 -15 0 -31 -9 -41 -25z m46 -5 c0 -20 -32 -44 -44 -33 -10 10 -7 20 10 37
21 22 34 20 34 -4z"/>
<path d="M1934 2485 c-9 -14 -14 -32 -10 -40 6 -17 32 -20 41 -5 3 5 0 7 -8 4
-8 -3 -18 -1 -21 5 -11 17 12 49 36 54 l23 4 -22 2 c-14 0 -29 -9 -39 -24z"/>
<path d="M2125 2500 c20 -9 15 -11 -25 -14 -20 -1 -26 -44 -6 -52 8 -3 23 -1
33 6 16 10 16 10 -4 5 -35 -9 -38 15 -4 28 36 13 41 37 9 36 -22 0 -22 -1 -3
-9z"/>
<path d="M2194 2498 c-33 -56 -36 -63 -21 -45 19 23 27 22 27 -5 l1 -23 18 23
c22 26 31 28 31 7 0 -8 5 -15 10 -15 6 0 10 16 10 35 0 39 -14 46 -30 15 -6
-11 -16 -20 -22 -20 -5 0 -8 9 -5 20 6 22 -8 27 -19 8z"/>
<path d="M2370 2484 c-16 -40 -12 -48 15 -30 32 21 46 20 40 -1 -3 -10 2 -3
10 16 9 18 14 35 12 38 -3 2 -19 -9 -37 -24 l-33 -27 5 27 c7 34 0 35 -12 1z"/>
<path d="M2637 2492 c-10 -10 -17 -28 -17 -40 0 -17 5 -21 30 -19 22 1 30 7
30 20 0 10 5 27 10 38 9 16 7 19 -13 19 -13 0 -31 -8 -40 -18z m37 -14 c-7
-25 -24 -39 -36 -32 -20 13 2 54 30 54 9 0 11 -7 6 -22z"/>
<path d="M2733 2503 c17 -5 24 -23 8 -23 -5 0 -8 -8 -7 -17 0 -10 -5 -17 -11
-15 -7 1 -13 -2 -13 -8 0 -24 32 -7 46 25 18 45 18 45 -13 44 -17 -1 -21 -3
-10 -6z"/>
<path d="M2783 2473 c-6 -21 -10 -39 -8 -41 12 -12 60 18 66 41 8 30 3 37 -25
37 -16 0 -24 -10 -33 -37z m47 17 c0 -5 -7 -10 -15 -10 -8 0 -15 5 -15 10 0 6
7 10 15 10 8 0 15 -4 15 -10z m-10 -30 c0 -5 -7 -10 -15 -10 -8 0 -15 5 -15
10 0 6 7 10 15 10 8 0 15 -4 15 -10z"/>
<path d="M2863 2475 c-13 -40 -6 -43 30 -15 l26 20 3 -22 c4 -20 6 -18 15 12
5 19 8 37 6 39 -2 3 -17 -8 -33 -24 -30 -28 -34 -27 -31 8 3 28 -5 19 -16 -18z"/>
<path d="M2970 2484 c-13 -33 -13 -54 1 -54 6 0 8 9 4 20 -5 15 -2 20 10 20
12 0 15 -5 11 -16 -4 -10 -1 -14 6 -12 13 5 29 53 20 62 -14 15 -43 4 -52 -20z
m40 6 c0 -5 -7 -10 -15 -10 -8 0 -15 5 -15 10 0 6 7 10 15 10 8 0 15 -4 15
-10z"/>
<path d="M3244 2498 c-4 -7 -14 -24 -23 -38 l-15 -25 22 19 c22 19 22 19 22
-5 l1 -24 24 28 c22 24 31 23 26 -5 0 -5 4 -8 9 -8 6 0 10 17 10 37 l0 36 -23
-21 c-29 -27 -41 -28 -34 -2 6 22 -8 27 -19 8z"/>
<path d="M3357 2492 c-10 -10 -17 -26 -17 -36 0 -22 28 -32 43 -16 10 10 8 12
-6 7 -22 -8 -34 17 -17 38 6 7 21 16 33 18 21 4 21 4 1 6 -11 0 -28 -7 -37
-17z"/>
<path d="M3581 2479 c-15 -42 -14 -49 5 -49 13 0 14 3 5 14 -8 10 -9 16 -1 21
14 9 32 -4 24 -18 -5 -8 -4 -9 4 -2 6 6 14 22 17 38 6 24 4 27 -18 27 -19 0
-28 -7 -36 -31z m44 11 c-3 -5 -10 -10 -16 -10 -5 0 -9 5 -9 10 0 6 7 10 16
10 8 0 12 -4 9 -10z"/>
<path d="M3876 2488 c-9 -12 -16 -28 -16 -34 0 -17 29 -26 48 -14 14 9 13 10
-5 5 -12 -3 -24 -1 -28 4 -11 18 14 50 42 54 l28 4 -27 2 c-18 0 -32 -7 -42
-21z"/>
<path d="M4034 2485 c-9 -14 -14 -32 -10 -40 6 -17 42 -20 52 -4 4 7 0 9 -14
5 -37 -12 -35 14 2 29 42 18 47 35 11 35 -15 0 -31 -9 -41 -25z m36 5 c-20
-13 -33 -13 -25 0 3 6 14 10 23 10 15 0 15 -2 2 -10z"/>
</g>
</svg>
