<svg width="44.000000" height="44.000000" viewBox="0 0 44 44" fill="none" xmlns="http://www.w3.org/2000/svg" xmlns:xlink="http://www.w3.org/1999/xlink">
	<desc>
			Created with Pixso.
	</desc>
	<defs>
		<filter id="filter_1_53_dd" x="0.000000" y="0.000000" width="44.000000" height="44.000000" filterUnits="userSpaceOnUse" color-interpolation-filters="sRGB">
			<feFlood flood-opacity="0" result="BackgroundImageFix"/>
			<feColorMatrix in="SourceAlpha" type="matrix" values="0 0 0 0 0 0 0 0 0 0 0 0 0 0 0 0 0 0 127 0" result="hardAlpha"/>
			<feOffset dx="0" dy="2"/>
			<feGaussianBlur stdDeviation="3.33333"/>
			<feComposite in2="hardAlpha" operator="out" k2="-1" k3="1"/>
			<feColorMatrix type="matrix" values="0 0 0 0 0.64706 0 0 0 0 0.65882 0 0 0 0 0.6902 0 0 0 0.1 0"/>
			<feBlend mode="normal" in2="BackgroundImageFix" result="effect_dropShadow_1"/>
			<feBlend mode="normal" in="SourceGraphic" in2="effect_dropShadow_1" result="shape"/>
		</filter>
	</defs>
	<g filter="url(#filter_1_53_dd)">
		<path id="XMLID 13" d="M34 20C34 26.6274 28.6274 32 22 32C15.3726 32 10 26.6274 10 20C10 13.3726 15.3726 8 22 8C28.6274 8 34 13.3726 34 20Z" fill="#FFFFFF" fill-opacity="1.000000" fill-rule="evenodd"/>
	</g>
	<path id="Vector" d="M23 20.9L24.4286 20.9L25 18.5L23 18.5L23 17.3C23 16.682 23 16.1 24.1428 16.1L25 16.1L25 14.084C24.8137 14.0582 24.1102 14 23.3674 14C21.816 14 20.7142 14.9941 20.7142 16.8199L20.7142 18.5L19 18.5L19 20.9L20.7142 20.9L20.7142 26L23 26L23 20.9Z" fill="#122659" fill-opacity="1.000000" fill-rule="nonzero"/>
</svg>
