<svg width="44.000000" height="44.000000" viewBox="0 0 44 44" fill="none" xmlns="http://www.w3.org/2000/svg" xmlns:xlink="http://www.w3.org/1999/xlink">
	<desc>
			Created with Pixso.
	</desc>
	<defs>
		<filter id="filter_1_59_dd" x="0.000000" y="0.000000" width="44.000000" height="44.000000" filterUnits="userSpaceOnUse" color-interpolation-filters="sRGB">
			<feFlood flood-opacity="0" result="BackgroundImageFix"/>
			<feColorMatrix in="SourceAlpha" type="matrix" values="0 0 0 0 0 0 0 0 0 0 0 0 0 0 0 0 0 0 127 0" result="hardAlpha"/>
			<feOffset dx="0" dy="2"/>
			<feGaussianBlur stdDeviation="3.33333"/>
			<feComposite in2="hardAlpha" operator="out" k2="-1" k3="1"/>
			<feColorMatrix type="matrix" values="0 0 0 0 0.64706 0 0 0 0 0.65882 0 0 0 0 0.6902 0 0 0 0.1 0"/>
			<feBlend mode="normal" in2="BackgroundImageFix" result="effect_dropShadow_1"/>
			<feBlend mode="normal" in="SourceGraphic" in2="effect_dropShadow_1" result="shape"/>
		</filter>
	</defs>
	<g filter="url(#filter_1_59_dd)">
		<path id="XMLID 12" d="M34 20C34 26.6274 28.6274 32 22 32C15.3726 32 10 26.6274 10 20C10 13.3726 15.3726 8 22 8C28.6274 8 34 13.3726 34 20Z" fill="#FFFFFF" fill-opacity="1.000000" fill-rule="evenodd"/>
	</g>
	<path id="Vector" d="M22 14C23.6302 14 23.8336 14.006 24.4731 14.036C25.1122 14.066 25.5472 14.1663 25.9301 14.3149C26.326 14.4674 26.6595 14.6738 26.9932 15.0068C27.2983 15.3068 27.5344 15.6696 27.6851 16.0699C27.8333 16.4521 27.934 16.8878 27.964 17.5269C27.9922 18.1664 28 18.3698 28 20C28 21.6302 27.994 21.8336 27.964 22.4731C27.934 23.1122 27.8333 23.5472 27.6851 23.9301C27.5348 24.3307 27.2987 24.6936 26.9932 24.9932C26.6932 25.2982 26.3304 25.5343 25.9301 25.6851C25.5479 25.8333 25.1122 25.934 24.4731 25.964C23.8336 25.9922 23.6302 26 22 26C20.3698 26 20.1664 25.994 19.5269 25.964C18.8878 25.934 18.4528 25.8333 18.0699 25.6851C17.6694 25.5347 17.3065 25.2986 17.0068 24.9932C16.7017 24.6934 16.4656 24.3304 16.3149 23.9301C16.1663 23.5479 16.066 23.1122 16.036 22.4731C16.0078 21.8336 16 21.6302 16 20C16 18.3698 16.006 18.1664 16.036 17.5269C16.066 16.8872 16.1663 16.4528 16.3149 16.0699C16.4651 15.6693 16.7013 15.3064 17.0068 15.0068C17.3066 14.7015 17.6694 14.4655 18.0699 14.3149C18.4528 14.1663 18.8872 14.066 19.5269 14.036C20.1664 14.0078 20.3698 14 22 14ZM22 17C21.2043 17 20.4413 17.316 19.8787 17.8787C19.316 18.4413 19 19.2043 19 20C19 20.7957 19.316 21.5587 19.8787 22.1213C20.4413 22.684 21.2043 23 22 23C22.7957 23 23.5587 22.684 24.1213 22.1213C24.684 21.5587 25 20.7957 25 20C25 19.2043 24.684 18.4413 24.1213 17.8787C23.5587 17.316 22.7957 17 22 17ZM25.9 16.85C25.9 16.6511 25.821 16.4603 25.6803 16.3197C25.5397 16.1791 25.3489 16.1 25.15 16.1C24.951 16.1 24.7604 16.1791 24.6196 16.3197C24.479 16.4603 24.4 16.6511 24.4 16.85C24.4 17.049 24.479 17.2396 24.6196 17.3804C24.7604 17.521 24.951 17.6 25.15 17.6C25.3489 17.6 25.5397 17.521 25.6803 17.3804C25.821 17.2396 25.9 17.049 25.9 16.85ZM22 18.2C22.4774 18.2 22.9352 18.3896 23.2728 18.7272C23.6104 19.0648 23.8 19.5226 23.8 20C23.8 20.4774 23.6104 20.9352 23.2728 21.2728C22.9352 21.6104 22.4774 21.8 22 21.8C21.5226 21.8 21.0648 21.6104 20.7272 21.2728C20.3896 20.9352 20.2 20.4774 20.2 20C20.2 19.5226 20.3896 19.0648 20.7272 18.7272C21.0648 18.3896 21.5226 18.2 22 18.2Z" fill="#122659" fill-opacity="1.000000" fill-rule="nonzero"/>
</svg>
