<svg width="44.000000" height="44.000000" viewBox="0 0 44 44" fill="none" xmlns="http://www.w3.org/2000/svg" xmlns:xlink="http://www.w3.org/1999/xlink">
	<desc>
			Created with Pixso.
	</desc>
	<defs>
		<filter id="filter_1_56_dd" x="0.000000" y="0.000000" width="44.000000" height="44.000000" filterUnits="userSpaceOnUse" color-interpolation-filters="sRGB">
			<feFlood flood-opacity="0" result="BackgroundImageFix"/>
			<feColorMatrix in="SourceAlpha" type="matrix" values="0 0 0 0 0 0 0 0 0 0 0 0 0 0 0 0 0 0 127 0" result="hardAlpha"/>
			<feOffset dx="0" dy="2"/>
			<feGaussianBlur stdDeviation="3.33333"/>
			<feComposite in2="hardAlpha" operator="out" k2="-1" k3="1"/>
			<feColorMatrix type="matrix" values="0 0 0 0 0.64706 0 0 0 0 0.65882 0 0 0 0 0.6902 0 0 0 0.1 0"/>
			<feBlend mode="normal" in2="BackgroundImageFix" result="effect_dropShadow_1"/>
			<feBlend mode="normal" in="SourceGraphic" in2="effect_dropShadow_1" result="shape"/>
		</filter>
	</defs>
	<g filter="url(#filter_1_56_dd)">
		<path id="XMLID 11" d="M34 20C34 26.6274 28.6274 32 22 32C15.3726 32 10 26.6274 10 20C10 13.3726 15.3726 8 22 8C28.6274 8 34 13.3726 34 20Z" fill="#FFFFFF" fill-opacity="1.000000" fill-rule="evenodd"/>
	</g>
	<path id="Vector" d="M21.8496 23.9666L22.6865 23.9666C22.6865 23.9666 22.9392 23.9387 23.0684 23.7993C23.1871 23.6714 23.1833 23.4312 23.1833 23.4312C23.1833 23.4312 23.167 22.3064 23.6881 22.1409C24.2018 21.9777 24.8616 23.2279 25.5608 23.7085C26.0895 24.0724 26.4913 23.9926 26.4913 23.9926L28.361 23.9666C28.361 23.9666 29.339 23.9061 28.8752 23.1359C28.8372 23.0729 28.6051 22.5662 27.4851 21.5248C26.3129 20.4348 26.4698 20.6112 27.882 18.7258C28.7419 17.5778 29.0858 16.8768 28.9784 16.5765C28.876 16.2906 28.2434 16.3662 28.2434 16.3662L26.1383 16.3793C26.1383 16.3793 25.9823 16.358 25.8666 16.4272C25.7534 16.4952 25.6807 16.6537 25.6807 16.6537C25.6807 16.6537 25.3475 17.5421 24.9032 18.2977C23.9658 19.8921 23.5909 19.9763 23.4377 19.8773C23.0814 19.6465 23.1704 18.9503 23.1704 18.4557C23.1704 16.9106 23.4043 16.2665 22.7148 16.0997C22.486 16.0443 22.3176 16.0077 21.7324 16.0018C20.9813 15.994 20.3455 16.0042 19.9856 16.1808C19.7461 16.2982 19.5613 16.5599 19.6738 16.5751C19.813 16.5938 20.1281 16.6602 20.2952 16.8881C20.5109 17.182 20.5033 17.8422 20.5033 17.8422C20.5033 17.8422 20.6272 19.661 20.2139 19.887C19.9301 20.042 19.5408 19.7256 18.7051 18.2791C18.2769 17.5381 17.9536 16.7191 17.9536 16.7191C17.9536 16.7191 17.8912 16.566 17.7802 16.4843C17.6451 16.385 17.4567 16.3534 17.4567 16.3534L15.4562 16.3666C15.4562 16.3666 15.1559 16.375 15.0457 16.5057C14.9476 16.6221 15.038 16.8627 15.038 16.8627C15.038 16.8627 16.604 20.5327 18.3773 22.3822C20.0032 24.0779 21.8496 23.9666 21.8496 23.9666Z" fill="#122659" fill-opacity="1.000000" fill-rule="evenodd"/>
</svg>
