<?xml version="1.0" encoding="utf-8"?>
<!-- Svg Vector Icons : http://www.onlinewebfonts.com/icon -->
<!DOCTYPE svg PUBLIC "-//W3C//DTD SVG 1.1//EN" "http://www.w3.org/Graphics/SVG/1.1/DTD/svg11.dtd">
<svg version="1.1" xmlns="http://www.w3.org/2000/svg" xmlns:xlink="http://www.w3.org/1999/xlink" x="0px" y="0px" viewBox="0 0 256 256" enable-background="new 0 0 256 256" xml:space="preserve">
<metadata> Svg Vector Icons : http://www.onlinewebfonts.com/icon </metadata>
<g><g><g><path fill="#000000" d="M80.7,32.9C65,45.5,52.2,56,52.1,56.3c0,0.2,12.7,16.4,28.4,35.9c15.7,19.5,28.5,35.7,28.5,36c-0.1,0.3-12.9,16.3-28.3,35.6c-15.5,19.3-28.3,35.3-28.3,35.5c-0.1,0.2,11.9,10.1,26.6,22c14.7,11.8,27.6,22.2,28.6,23.1l1.9,1.6l47.3-58.8c26-32.4,47.2-59.1,47.1-59.4c-0.2-0.5-29.5-36.9-87.2-108.5l-7.6-9.4L80.7,32.9z M140.8,86.9l33.2,41.2l-4.5,5.5c-2.5,3.1-15.3,18.9-28.4,35.3c-13.1,16.4-26.5,32.9-29.6,36.7l-5.7,7.1l-10.3-8.4c-6.8-5.5-10.2-8.5-10-8.8c0.2-0.3,12.3-15.3,26.9-33.5c14.6-18.1,26.6-33.2,26.9-33.5c0.2-0.4-9.4-12.6-26.8-34.3C97.6,75.8,85.3,60.4,85.3,60.1c-0.1-0.3,4.5-4.2,10.1-8.7l10.3-8.2l1,1.3C107.2,45.2,122.6,64.2,140.8,86.9z"/></g></g></g>
</svg>