<svg width="118.000000" height="133.000000" viewBox="0 0 118 133" fill="none" xmlns="http://www.w3.org/2000/svg" xmlns:xlink="http://www.w3.org/1999/xlink">
	<desc>
			Created with Pixso.
	</desc>
	<defs/>
	<path id="boy" d="M108.54 33.39C111.66 31.63 115.95 32.83 117.44 36.14C118.76 39.09 117.7 43.11 114.58 44.41C112.47 45.29 109.13 44.73 107.67 42.76C103.05 50.83 91.51 56.14 82.59 55.64C82.57 57.52 82.36 59.39 82.1 61.1C82 61.8 81.16 62.12 80.56 61.98C77.49 61.29 74.4 60.59 71.38 59.67C71.27 69.42 70.42 79.12 68.82 88.77C68.72 89.38 67.97 89.93 67.37 89.88C66.39 89.79 65.4 89.68 64.41 89.55C63.17 98.04 60.03 107.08 56.64 114.93C56.37 115.57 55.66 115.5 55.24 115.1C52.7 115.35 50.12 115.2 47.61 114.73C47.11 118.63 46.29 122.56 45.39 126.41C49.29 124.84 55.47 124.54 55.76 129.35C56.15 135.7 45.23 132.15 42.48 130.59C41.61 130.09 41.82 129.05 42.42 128.58C42.37 128.38 42.34 128.16 42.39 127.92C43.27 123.39 44.22 118.71 45.6 114.31C43.38 113.76 40.28 112.93 38.58 111.4C37.15 110.12 37.69 108.52 38.24 106.92C38.3 106.74 38.36 106.55 38.42 106.37C39.36 103.48 40.3 100.58 41.49 97.78C37.54 97.03 33.8 94.51 31.9 91.17C31.45 90.38 32.58 89.45 33.18 90.18C37.15 94.94 41.72 95.94 47.62 95.35C48.56 95.25 48.99 96.79 48.11 97.17C46.62 97.83 44.99 98.07 43.36 98C42.85 100.44 42.14 102.81 41.42 105.19C41.29 105.62 41.13 106.03 40.99 106.41C40.42 107.92 39.97 109.1 41.55 110.16C45.32 112.68 50.98 112.84 55.3 112.73L55.3 112.73C57.17 104.92 59.23 96.7 62.02 89.22C50.25 87.39 38.03 82.95 28.85 75.37C25.39 81.69 20.98 87.5 16.78 93.34C16.52 93.7 16.27 94.03 16.02 94.33C15.14 95.44 14.47 96.29 14.79 97.48C15.16 98.87 17.91 100.14 19.24 100.98C22.13 102.79 25.29 103.85 28.57 104.67C28.73 104.71 28.85 104.78 28.96 104.85C30.79 101.96 32.92 98.99 35.24 96.56C36.04 95.72 37.46 96.82 36.84 97.79C34.8 100.96 32.08 104.07 29.43 106.73C29.24 106.91 29.02 106.95 28.82 106.91C28.57 107.07 28.26 107.15 27.9 107.08C25.16 106.59 22.54 105.73 20.07 104.51C19 106.47 17.51 108.22 16.08 109.92C14.58 111.69 13.06 114.1 11.02 115.24C10.69 115.42 10.37 115.42 10.1 115.32C7.83 115.55 5.47 114.75 3.55 113.57C1.99 112.63 -0.73 110.69 0.17 108.53C1.82 104.58 8.24 109.29 10.6 112C11.65 110.73 13.01 109.57 14.05 108.43C15.5 106.83 16.91 105.13 18.55 103.71C17.83 103.3 17.11 102.86 16.41 102.38C14.73 101.22 11.36 99.28 11.25 96.96C11.15 94.76 14.14 91.35 16.37 88.81C17.14 87.94 17.81 87.17 18.24 86.59C21.3 82.45 24.36 78.28 27.87 74.52C27.46 74.17 27.05 73.82 26.66 73.46C22.8 69.85 26.53 66.94 29.89 64.32C30.71 63.68 31.51 63.05 32.17 62.44C36.45 58.47 40.28 53.98 44.32 49.75C41.84 48.84 39.42 47.45 37.2 46.1C36.54 45.7 36.23 44.55 36.93 44C38.42 42.83 39.8 41.49 41.11 40.1C40.88 40.09 40.64 40.02 40.4 39.84C33.19 34.15 29.15 23.55 30.42 14.38C27.44 14.09 25.59 10.7 25.99 7.84C26.5 4.18 30.29 1.93 33.74 1.84C38.46 1.73 39.83 4.78 39.32 7.83C38.76 11.22 35.87 14.62 32.71 13.64C33.05 23.53 35.63 30.56 41.91 38.32C42.07 38.53 42.14 38.74 42.17 38.95C42.98 38.05 43.77 37.15 44.56 36.24L44.78 36.07C44.28 34.6 43.9 33.07 43.69 31.43C41.72 15.97 53.33 3.33 67.77 0.35C67.97 0.31 68.13 0.35 68.25 0.43C80.78 -2.29 94.31 8.26 96.65 20.5C98.99 32.73 92.48 44.53 81.78 49.64C82.26 51.08 82.49 52.64 82.56 54.22C87.22 53.29 91.71 52.24 95.9 49.82C99.96 47.48 102.6 44.26 105.75 41.11C104.59 38.47 106.15 34.74 108.54 33.39ZM65.44 3.62C64.95 3.65 64.65 3.44 64.49 3.14C58.62 6.07 53.31 10.38 49.99 15.82C55.44 16.57 60.38 16.52 65.79 15.09C66.67 14.86 67.56 15.87 67.02 16.69C65.74 18.61 64.33 20.2 62.64 21.58C69.19 23 75.79 22.14 81.95 19.29C82.92 18.84 83.99 19.77 83.44 20.78C82.25 23.01 80.76 24.61 78.83 25.81C83.79 27.02 88.57 26.68 93.6 24.91L93.86 24.84C93.81 23.21 93.58 21.56 93.16 19.91C89.87 7.06 77.29 2.76 65.44 3.62ZM28.36 8.69C28.34 10.39 29.44 11.63 30.92 12.2C30.94 11.81 31.23 11.45 31.7 11.63C34.52 12.72 36.62 10.52 37.05 7.83C37.56 4.72 34.81 3.86 32.29 4.52C30.37 5.02 28.38 6.52 28.36 8.69ZM46.51 29.45C47.4 44.35 62.39 51.67 75.8 48.48C85.8 46.11 92.93 37.39 93.78 27.55C87.67 29.56 81.51 29.37 75.44 27.17C74.38 26.79 74.38 25.39 75.44 25C76.92 24.46 78.2 23.66 79.29 22.64C72.96 24.7 66.53 24.79 59.85 23.12C58.89 22.88 58.87 21.65 59.59 21.14C61.23 19.99 62.41 18.98 63.53 17.7C58.77 18.41 54.01 18.3 49.31 16.99C47.32 20.68 46.24 24.85 46.51 29.45ZM57.09 25.97C55.05 24.92 52.38 25.82 51.35 27.84C50.98 28.57 51.95 29.44 52.54 28.76C53.44 27.72 54.86 27.09 56.22 27.6C57.72 28.16 58.23 29.86 57.75 31.29C57.42 32.28 58.96 32.68 59.3 31.72C60.06 29.59 59.13 27.01 57.09 25.97ZM80.03 33.79C77.5 33.08 74.49 34.93 74.5 37.69C74.51 38.13 75.13 38.32 75.35 37.92C76.1 36.52 77.58 35.26 79.28 35.61C81.12 35.98 81.74 37.94 81.43 39.57C81.26 40.47 82.54 41.18 83 40.24C84.2 37.77 82.66 34.52 80.03 33.79ZM108.53 41.04C109.83 42.24 111.4 43.09 113.25 42.34C115.12 41.59 115.83 39.34 115.24 37.5C114.51 35.26 111.77 34.41 109.75 35.46C107.96 36.39 107.73 37.96 107.95 39.57C108.47 39.66 108.93 40.11 108.69 40.71C108.64 40.82 108.58 40.93 108.53 41.04ZM64.56 36.4C64.48 36.41 64.41 36.41 64.66 36.43C65.13 36.47 65.46 37.19 64.93 37.43L64.79 37.5C64.61 37.75 64.33 37.92 64.18 38.22C64.01 38.56 63.9 38.97 63.94 39.36C63.97 39.62 64.17 39.9 64.38 40.17C64.74 40.65 65.1 41.13 64.55 41.56C64.23 41.82 63.88 41.89 63.5 41.7C62.31 41.09 61.93 39.65 62.2 38.4C62.33 37.79 62.65 37.24 63.13 36.84C63.37 36.65 63.65 36.47 63.94 36.4C64.11 36.36 64.24 36.36 64.41 36.38C64.7 36.4 64.63 36.4 64.56 36.4ZM45.65 38.25C43.81 40.39 41.86 42.41 40 44.52C42.05 45.56 44.1 46.74 45.88 48.16C47.16 46.86 48.48 45.59 49.85 44.39C48.14 42.62 46.72 40.56 45.65 38.25ZM67.43 44.08C63.64 43.64 60.37 42.74 57.18 40.55C56.76 40.26 56.27 40.91 56.64 41.25C59.52 43.91 63.44 45.7 67.43 45.48C68.34 45.43 68.31 44.19 67.43 44.08ZM48.02 82.46C53.86 84.69 59.92 86.06 66.11 86.72C67.92 75.32 68.65 63.86 68.33 52.32C61.83 52.05 55.59 49.68 50.99 45.5C48.01 50.89 43.49 55.48 39.22 59.84C37.17 61.93 35.05 63.95 32.87 65.91C32.26 66.46 28.67 69 28.46 69.75C28.18 70.77 28.32 70.88 28.79 71.25C28.98 71.4 29.22 71.59 29.52 71.9C34 76.72 42.01 80.16 48.02 82.46ZM71.4 57.76C74.22 58.13 77.02 58.68 79.81 59.26C79.98 56.94 79.76 54.72 79.54 52.46C79.48 51.87 79.42 51.26 79.37 50.65C78.21 51.08 77.02 51.43 75.78 51.69C74.31 52.01 72.82 52.2 71.33 52.29C71.38 54.12 71.4 55.94 71.4 57.76ZM3.02 110.02C3.44 111.19 5.97 112.3 7.03 112.72C7.81 113.03 8.62 113.23 9.44 113.42C8.5 112.48 7.62 111.55 6.46 110.83C5.78 110.4 5.08 110.04 4.31 109.77C4.27 109.75 4.22 109.74 4.17 109.72C3.58 109.51 2.73 109.2 3.02 110.02ZM51.8 127.8C51.37 127.68 50.93 127.61 50.48 127.61C49.87 127.57 49.26 127.6 48.66 127.67C47.33 127.81 46.11 128.22 44.87 128.62C44.83 128.78 44.77 128.92 44.69 129.04C45.76 129.58 46.89 130 48.08 130.25C48.92 130.43 49.77 130.53 50.63 130.56C50.74 130.56 50.85 130.57 50.95 130.57C51.85 130.61 52.03 130.62 52.53 129.47C53.35 128.54 53.11 127.98 51.8 127.8Z" fill="#8DD9E5" fill-opacity="1.000000" fill-rule="evenodd"/>
</svg>
