<svg width="87.850952" height="114.186157" viewBox="0 0 87.851 114.186" fill="none" xmlns="http://www.w3.org/2000/svg" xmlns:xlink="http://www.w3.org/1999/xlink">
	<desc>
			Created with Pixso.
	</desc>
	<defs/>
	<path id="girl" d="M87.01 96.79C85.59 95.3 83.16 95.55 81.46 96.36C79.4 97.32 77.92 99.25 76.83 101.23C75.92 100.25 74.94 99.32 74.08 98.32C72.93 97 71.87 95.58 70.66 94.3C75.02 91.82 78.97 88.43 82.23 84.2C82.5 83.84 82.45 83.16 82.11 82.85C74.71 76.19 68.29 68.47 62.85 60.13C72.45 57.49 81.59 48.09 83.13 38.16C84.99 37.05 86.12 34.81 85.63 32.65C85.1 30.33 82.68 28.76 80.34 29.06C78.09 29.36 76.57 31.46 76.66 33.68C76.77 36.35 79.03 37.36 81.3 37.74L81.33 37.83L81.32 37.85C79.3 42.78 77.45 47.16 73.68 51.06C70.33 54.52 66.28 56.79 61.96 58.76C60.55 56.54 59.21 54.28 57.93 51.99C57.87 51.88 57.8 51.79 57.72 51.72C62.5 48.17 65.85 42.57 66.51 36.68C67.44 28.4 63.08 20.05 56.35 15.24C62.24 14.13 64.44 7.88 67.37 3.19C67.9 2.33 66.97 1.54 66.15 1.87C64.08 2.68 61.88 1.89 59.71 1.11C58.5 0.68 57.31 0.24 56.15 0.1C53.5 -0.23 50.7 0.2 48.37 1.56C44.81 3.65 42.76 7.92 43.96 11.85C38.49 11.91 32.58 13.95 28.16 17.15C26.97 12.25 21.21 9.21 16.39 10.09C13.55 10.61 11.38 12.26 10.33 14.95C9.99 15.84 9.77 16.75 9.56 17.65C9.21 19.09 8.87 20.53 8 21.85C6.29 24.46 3.68 25.87 0.68 26.36C-0.12 26.5 -0.23 27.61 0.4 28.02C6.39 31.86 14.56 32.52 20.41 28.47C18.99 34.16 19.97 40.45 23.52 45.22C27.49 50.55 34.6 54.34 41.72 55.37C41.31 57.4 40.96 59.43 40.63 61.47C36.47 61.63 32.54 61.57 28.51 60.19C24.56 58.83 21.74 56.46 18.6 53.97C20 52.12 20.24 49.73 18.78 47.81C17.35 45.93 14.53 45.34 12.46 46.5C10.55 47.58 9.73 50.11 10.57 52.12C11.57 54.47 14.47 55.16 16.8 54.77C21.34 61.83 32.24 65.44 40.31 63.39C39.72 67.03 39.13 70.67 38.28 74.27C36.78 80.71 34.78 86.99 32.41 93.15C32.24 93.59 32.48 94.21 32.88 94.43C38.67 97.62 44.91 99.21 51.09 99.31C50.56 102.33 50.22 105.37 49.95 108.42C49.85 108.35 49.73 108.29 49.59 108.26C47.32 107.78 35.37 106.63 37.12 111.74C37.79 113.7 40.48 114.08 42.23 114.17C45.03 114.3 47.96 113.49 50.1 111.66C50.69 112.1 51.81 111.85 51.88 110.87C52.2 107.02 52.45 103.16 52.4 99.3C58.27 99.2 64.04 97.74 69.28 95.04C70.16 96.72 71.38 98.26 72.58 99.71C73.92 101.34 75.32 103.14 77.05 104.37C77.37 104.61 77.69 104.6 77.94 104.46C78.09 104.57 78.28 104.62 78.52 104.57C80.9 104.05 90.74 100.67 87.01 96.79ZM57.02 2.28C58.01 2.48 58.96 2.78 59.88 3.07L59.9 3.08C61.53 3.6 63.11 4.1 64.79 4.01C62.58 8.18 60.38 13.31 55.17 13.61C54.83 13.63 54.59 13.8 54.45 14.03C54.11 13.84 53.78 13.64 53.44 13.46C54.42 11.61 53.5 8.95 51.54 8.14C49.33 7.24 46.36 8.99 46.52 11.5C46.54 11.73 46.66 11.89 46.82 12C46.35 11.94 45.89 11.9 45.42 11.88C44.79 5.25 50.56 0.96 57.02 2.28ZM51.88 12.74C51.47 12.57 51.06 12.41 50.65 12.27C50.13 12.09 49.73 12.24 49.47 12.54C48.78 12.33 48.06 12.19 47.33 12.08C47.49 12.03 47.62 11.91 47.69 11.7C48.08 10.42 49.46 9.1 50.91 9.74C52.09 10.26 52.33 11.67 51.88 12.74ZM22.75 27.81C23.63 25.05 25.09 22.78 26.95 20.93C25.31 25.25 26.14 30.69 29.61 33.78C30.28 34.37 31.19 33.55 30.64 32.83C27.29 28.5 26.77 23.57 29.45 18.83C30.94 17.79 32.57 16.93 34.3 16.24C35.09 21.38 37.33 27.08 40.84 30.76C41.38 31.32 42.36 30.66 41.97 29.95C40.67 27.58 39.12 25.39 38 22.9C36.96 20.58 36.27 18.19 35.64 15.75C37.29 15.19 39.01 14.77 40.75 14.48C42.99 15.47 44.88 16.64 46.6 18.53C48.19 20.3 49.27 22.39 50.68 24.27C51.03 24.74 51.92 24.28 51.71 23.72C50.32 20.04 47.15 15.9 43.27 14.15C45.32 13.94 47.37 13.89 49.33 13.98C49.46 14.22 49.66 14.42 49.95 14.55C53.34 16.06 56.43 18.26 58.88 20.95C50.74 34.2 36.31 36.01 22.15 36.69C21.61 33.93 21.74 30.94 22.75 27.81ZM37.98 52.38C30.49 50.08 24.26 44.73 22.4 37.77C36.41 39.8 52.27 34.6 60.11 22.4C63.93 27.29 65.71 33.51 63.78 40.07C60.37 51.61 48.8 55.71 37.98 52.38ZM3.28 27.58C6.81 26.38 9.6 23.76 10.88 20.09C11.15 19.34 11.31 18.59 11.46 17.85C11.88 15.89 12.27 14.04 14.47 12.7C15.77 11.9 17.55 11.67 19.03 11.8C22.9 12.16 25.4 14.69 27.18 17.89C26.76 18.23 26.35 18.57 25.97 18.93C25.92 18.87 25.88 18.81 25.8 18.75C23.72 17.21 20.42 17.91 19.33 20.35C18.61 21.98 19.38 24.9 21.09 25.79C16 30.18 9.16 30.57 3.28 27.58ZM78.69 33.74C78.6 32.47 79.38 31.25 80.68 31.08C82.04 30.91 83.51 31.88 83.74 33.26C83.97 34.57 83.27 35.81 82.2 36.5L82.17 36.49C80.7 36.07 78.83 35.54 78.69 33.74ZM23.93 21.13C23.13 22.15 22.46 23.26 21.89 24.41C21.56 24.17 21.25 23.9 21.01 23.49C20.54 22.68 20.39 21.66 20.87 20.81C21.66 19.41 23.64 19.17 24.91 19.98C24.56 20.36 24.23 20.74 23.93 21.13ZM55.6 32.73C56.6 31.59 58.52 32.27 59.17 33.43C59.98 34.88 58.9 36.5 57.35 36.67C55.86 36.84 54.4 35.58 54.87 34C54.97 33.69 55.13 33.39 55.35 33.14C55.41 33 55.49 32.85 55.6 32.73ZM49.39 44.07C49.49 43.68 49.59 43.33 49.31 42.98C49.15 42.79 48.95 42.62 48.74 42.5C47.81 41.96 46.61 42.22 46.05 43.13C45.79 43.55 46.28 44.15 46.73 43.87C47.06 43.66 47.51 43.62 47.86 43.79C47.85 43.82 47.84 43.86 47.83 43.89C47.64 44.48 47.46 45.1 47.44 45.69C47.43 46.36 48.4 46.72 48.74 46.09C49.01 45.62 49.14 45.07 49.27 44.54C49.31 44.38 49.35 44.22 49.39 44.07ZM46.17 48.46C48.22 49.65 50.48 48.45 51.45 46.53C51.82 45.8 52.91 46.38 52.71 47.11C51.91 49.99 47.95 50.9 45.73 49.15C45.32 48.83 45.7 48.19 46.17 48.46ZM36.68 43.31C36.6 41.86 34.94 40.89 33.62 41.53C32.96 41.86 32.51 42.63 32.73 43.35C32.65 43.53 32.59 43.72 32.53 43.92C32.35 44.61 32.72 45.15 33.34 45.43C34.77 46.08 36.77 44.97 36.68 43.31ZM34.89 92.95C39.37 81.29 43.34 68.11 43.17 55.53C46.01 55.79 48.81 55.61 51.38 54.89C52.99 54.43 54.52 53.75 55.95 52.9L56 53.02C62.41 64.49 70.47 74.51 79.81 83.69C68.88 97.15 50.27 101 34.89 92.95ZM17.42 53.14C17.11 53.08 16.8 53.25 16.61 53.52C16.4 53.48 16.19 53.45 15.97 53.42C14.74 53.25 13.44 53.06 12.74 51.96C12.05 50.86 12.4 49.17 13.51 48.47C14.61 47.78 16.28 48.16 17.08 49.14C17.94 50.19 18 51.93 17.42 53.14ZM82.44 101.34C81.14 102.07 79.76 102.63 78.33 103.06L78.26 102.92C78.18 102.8 78.09 102.7 78 102.59C78.71 101.47 79.35 100.3 80.29 99.34C81.32 98.28 83.27 96.93 84.83 97.64C87.14 98.7 83.37 100.82 82.44 101.34ZM49.83 109.81C49.81 110.06 49.78 110.32 49.76 110.58C49.67 110.58 49.57 110.58 49.48 110.62C47.98 111.19 46.49 111.75 44.89 111.97C43.58 112.16 40.6 112.4 39.58 111.39C38.79 110.61 40.11 110.3 40.89 110.12C40.95 110.1 41 110.09 41.06 110.08C41.87 109.88 42.67 109.75 43.5 109.68C45.37 109.51 47.21 109.63 49.06 110C49.37 110.06 49.63 109.97 49.83 109.81Z" fill="#FEB9CC" fill-opacity="1.000000" fill-rule="evenodd"/>
</svg>
