<svg width="58.000000" height="97.000000" viewBox="0 0 58 97" fill="none" xmlns="http://www.w3.org/2000/svg" xmlns:xlink="http://www.w3.org/1999/xlink">
	<desc>
			Created with Pixso.
	</desc>
	<defs/>
	<path id="house" d="M52.9 60.97C51.45 60.58 49.98 60.27 48.5 59.98C48.89 57.03 49.11 54.06 49.22 51.16C50.77 51.44 52.32 51.73 53.86 52.03L54.1 52.05C53.75 55.04 53.35 58.01 52.9 60.97ZM51.41 70.03L51.31 69.99C49.71 69.72 48.08 69.52 46.45 69.37C47.15 67.18 47.69 64.93 48.09 62.63C49.53 63.09 50.97 63.52 52.43 63.88C52.1 65.93 51.78 67.98 51.41 70.03ZM46.35 93.08C40.45 91.8 34.52 90.73 28.54 89.93C25.35 89.5 22.14 89.17 18.94 88.89C19.28 83.67 19.88 76.9 25.75 75.19C33.7 72.88 33.37 84.21 33.13 88.78C33.05 90.41 35.29 90.49 35.81 89.14C38.23 82.78 35.06 71.11 26.63 71.93C18.19 72.75 16.34 81.69 16.89 88.7C15.84 88.63 14.44 88.68 12.95 88.73C10.12 88.83 6.96 88.93 5.27 88.14C3.96 88.55 3.5 88.07 3.9 86.7C3.81 85.8 3.8 84.89 3.87 83.99C3.89 82.25 4.01 80.51 4.07 78.77C4.22 74.85 4.37 70.94 4.52 67.02C4.53 66.6 4.55 66.18 4.57 65.76C7.88 66.61 13.82 68.44 15.66 65.09C16.9 62.86 17.01 59.53 17.21 56.68C17.91 56.28 17.96 55.23 17.39 54.72L17.42 54.45C17.78 51.73 18.26 49.01 18.53 46.28C26.06 47.4 33.59 48.51 41.11 49.75L41.02 49.91C38.98 56.4 38.38 63.53 37.98 70.29C37.93 71.14 38.71 71.71 39.47 71.78C43.28 72.09 47.14 72.54 50.96 72.52C49.66 79.42 48.13 86.27 46.35 93.08ZM4.89 56.57C5.92 56.61 6.94 56.65 7.97 56.69C7.96 59.32 8.1 61.96 8.43 64.61C7.14 64.49 5.79 64.28 4.63 64.21C4.73 61.67 4.82 59.12 4.89 56.57ZM8.99 44.79C8.46 48.05 8.12 51.31 8.01 54.57C6.99 54.61 5.97 54.65 4.95 54.69C5.02 51.17 5.02 47.66 4.84 44.14C6.22 44.37 7.6 44.58 8.99 44.79ZM14.22 56.83C14.19 57.08 14.16 57.33 14.13 57.57C13.83 59.9 14.27 63.72 11.57 64.48C11.14 64.59 10.66 64.65 10.15 64.66C10.09 62.02 10.1 59.39 10.21 56.77C11.54 56.8 12.88 56.82 14.22 56.83ZM10.32 54.5C10.51 51.38 10.83 48.27 11.36 45.17C12.79 45.39 14.21 45.62 15.64 45.84C15.14 48.67 14.83 51.56 14.5 54.43C13.11 54.44 11.71 54.46 10.32 54.5ZM41.08 68.92C41.29 66.1 41.62 63.29 41.97 60.49C43.02 60.88 44.08 61.27 45.14 61.64C44.89 64.16 44.67 66.68 44.54 69.19C43.38 69.1 42.23 69.01 41.08 68.92ZM45.35 59.41C44.29 59.23 43.22 59.07 42.16 58.91C42.53 56.01 42.89 53.11 43.16 50.2L43.15 50.09C44.17 50.26 45.19 50.44 46.21 50.62L46.13 50.92C45.93 53.75 45.64 56.58 45.35 59.41ZM33.71 6.55C40.7 20.16 47.21 34.02 53.17 48.12C41.71 45.84 30.07 43.79 18.38 42.65C17.93 42.21 17.15 42.13 16.63 42.49C12.91 42.16 9.18 41.92 5.45 41.81C16.79 32.07 25.84 19.25 33.71 6.55ZM57.83 48.3C51.12 32.25 43.77 16.49 35.75 1.05C34.98 -0.43 32.82 -0.28 32.02 1.05C23.24 15.48 12.38 28.1 2.48 41.71C1.38 41.71 1.07 43.51 2.22 43.71L2.3 43.72C1.12 52.73 1.04 61.87 0.7 70.94C0.54 75.29 0.38 79.64 0.22 83.99C0.15 85.76 -0.54 89.1 0.91 90.67C1.79 91.63 2.83 91.54 3.97 91.76C6.44 92.25 9.18 92.24 11.88 92.23C13.6 92.22 15.31 92.22 16.93 92.34C27.13 93.12 37.21 94.72 47.19 96.95C48.14 97.16 49.16 96.67 49.42 95.69C53.32 80.96 56.11 66.02 57.82 50.88C57.86 50.53 57.8 50.25 57.69 50.01C58.01 49.57 58.12 49 57.83 48.3Z" fill="#FFD787" fill-opacity="1.000000" fill-rule="nonzero"/>
</svg>
