<svg width="44.000000" height="132.000000" viewBox="0 0 44 132" fill="none" xmlns="http://www.w3.org/2000/svg" xmlns:xlink="http://www.w3.org/1999/xlink">
	<desc>
			Created with Pixso.
	</desc>
	<defs/>
	<path id="pencil" d="M32.77 128.83C35.68 128.39 38.62 127.86 40.46 125.44C42.5 122.75 41.48 119.6 40.48 116.64C38.66 118.65 35.73 119.63 33.2 120.3C30.26 121.08 26.06 121.3 22.71 120.25C23.07 122.34 23.38 124.73 24.31 126.58C25.32 128.61 26.54 128.98 28.86 129.16C30.15 129.26 31.51 129.02 32.77 128.83ZM39.32 109.29C39.19 109.12 39.15 108.95 39.17 108.79C36.7 112.59 30.68 114.79 26.29 114.92C24.2 114.99 21.7 114.76 19.61 113.87C21.19 118.32 25.92 119.45 30.54 118.63C34.25 117.98 44.05 115.15 39.32 109.29ZM37.74 103.3C37.63 103.37 37.51 103.43 37.37 103.46C32.71 108.59 24.06 108.29 17.68 107.16C16.17 112.57 24.97 113 28.27 112.47C32.38 111.81 39.7 108.87 37.74 103.3ZM35.37 102.15C32.6 74.35 26.24 47.53 18.4 20.76C16.73 22.54 14.82 23.94 12.74 24.93C12.95 25.06 13.15 25.21 13.31 25.44C16.68 30.22 17.39 37.39 18.81 43C20.53 49.77 22.13 56.58 23.62 63.41C26.52 76.74 28.98 90.16 31.04 103.65C31.08 103.92 31.07 104.17 31.03 104.4C32.55 104.03 34.04 103.45 35.49 102.6C35.43 102.46 35.39 102.32 35.37 102.15ZM17.34 19.47C13.87 16.24 10.6 12.78 7.31 9.35C6.55 10.98 4.95 12.01 3.12 12.11C3.24 15.98 3.34 19.85 3.29 23.71C3.29 23.81 3.25 23.89 3.23 23.97C8.4 24.31 13.4 22.92 17.34 19.47ZM5.29 9.27C5.04 9.16 4.81 9.04 4.59 8.9C4.52 9.26 4.44 9.62 4.33 9.98C4.76 9.84 5.15 9.62 5.48 9.32L5.29 9.27ZM19.63 104.88C22.01 105.01 24.3 105.13 26.51 105.03L26.48 104.89C24.42 91.4 21.97 77.98 19.07 64.65C17.66 58.14 16.14 51.66 14.52 45.2C13.04 39.3 9.85 32.35 10.26 26.26C10.27 26.12 10.31 26 10.35 25.88C7.94 26.63 5.36 26.87 2.7 26.55C10.25 52.07 14.95 78.73 19.63 104.88ZM24.17 131.19C21.02 129.52 20.57 123.25 20.1 120.22C20.04 119.81 20.15 119.45 20.36 119.19C18.29 117.88 16.99 115.76 17.37 112.54L17.38 112.49C17.01 112.15 16.66 111.79 16.37 111.37C14.94 109.3 15.06 106.3 17.27 104.98C12.41 77.99 5.73 51.42 0.51 24.53C0.43 24.08 0.69 23.76 1.02 23.64C0.43 16.24 0.45 8.79 0 1.38C-0.08 0.11 1.59 -0.43 2.44 0.38C8.52 6.21 14.85 12.25 19.57 19.25L19.64 19.42C19.76 19.51 19.85 19.64 19.92 19.81C29.83 45.65 35.29 73.28 38.12 100.75C38.46 100.6 38.86 100.82 38.9 101.16C39.11 101.24 39.3 101.38 39.44 101.66C40.7 104.25 40.49 106.52 39.4 108.42C39.6 108.27 39.89 108.23 40.17 108.44C42.25 110.04 42.7 112.78 41.55 115.13C41.49 115.26 41.39 115.37 41.32 115.5C41.54 115.52 41.75 115.62 41.87 115.87C43.28 118.9 44.82 122.44 43.48 125.77C42.16 129.05 38.49 130.26 35.3 130.98C32.18 131.68 27.14 132.75 24.17 131.19Z" fill="#8DD9E5" fill-opacity="1.000000" fill-rule="nonzero"/>
</svg>
