<svg width="152.182983" height="125.801697" viewBox="0 0 152.183 125.802" fill="none" xmlns="http://www.w3.org/2000/svg" xmlns:xlink="http://www.w3.org/1999/xlink">
	<desc>
			Created with Pixso.
	</desc>
	<defs/>
	<path id="rainbow" d="M147.88 66.68C145.24 72.95 138.75 74.43 132.86 72.61C132.76 72.36 132.66 72.11 132.53 71.86C131.8 70.4 129.09 70.87 129.56 72.67C130.76 77.34 130.35 82.36 126.08 85.42C121.41 88.76 115.19 86.62 111.89 82.52C111.54 82.09 111.1 81.98 110.7 82.05C110.41 82.04 110.12 82.14 109.94 82.39C108.4 84.54 107.26 86.53 104.48 87.23C101.47 87.98 98.61 86.57 97.15 83.9C93.76 77.73 98.67 72.23 104.73 71.18C105.92 70.98 105.95 69.24 104.72 69.06L104.46 69.04C99.33 65.6 91.92 61.15 97.05 54.14C101.78 47.68 109.69 50.44 114.78 54.65C115.98 55.65 117.83 53.81 116.72 52.66C116.52 52.45 116.3 52.26 116.09 52.06C116.74 52.22 117.55 51.91 117.58 51.13C117.8 44.13 123.36 37.71 130.83 38.83C138.18 39.94 141.09 47.68 137.37 53.52C136.76 53.71 136.47 54.24 136.5 54.78C135.64 56.4 138.06 57.98 139.4 56.49L139.49 56.38C141.35 56.64 143.24 56.86 144.96 57.58C148.8 59.2 149.36 63.14 147.88 66.68ZM67.31 43.53C55.85 48.17 49.38 60.75 52.59 72.57C49.7 72.33 46.72 72.8 43.97 73.91C40.98 58.36 44.96 42.43 60.29 34.98C75.09 27.77 92.57 33.67 100.9 47.55C98.41 48.17 96.11 49.55 94.33 51.91C89.84 42.27 77.11 39.56 67.31 43.53ZM61.04 81.34C66.19 88.58 60.53 97.23 52.48 96.77C52.13 96.46 51.75 96.16 51.33 95.9C50.07 95.13 48.19 96.67 49.38 97.92C52.59 101.32 54.08 106.83 50.29 110.53C46.23 114.5 39.37 112.4 36.52 108.09C36.33 107.81 36.05 107.81 35.83 107.95C35.25 107.64 34.48 107.75 34.19 108.53C31.75 114.98 29.46 122.28 20.86 122.13C9.18 121.92 15.31 107.82 17.84 101.96C18.68 101.08 17.66 99.75 16.51 100.1C12.83 101.22 3.76 105.1 3.13 98.05C2.57 91.94 9.62 90.26 14.44 90.31C14.67 90.46 14.89 90.61 15.14 90.73C16.36 91.34 17.69 89.58 16.75 88.58C11.98 83.5 13.54 77.85 20.19 75.21C26.27 72.78 34.21 74.45 34.77 82.09C34.87 83.43 36.92 83.38 37.09 82.09C37.11 81.93 37.12 81.77 37.13 81.61C37.56 81.79 38.05 81.78 38.49 81.42C45.11 75.9 55.14 73.04 61.04 81.34ZM24.17 34.92C30.32 22.04 41.31 12.18 54.65 7.14C81.99 -3.18 112.35 9.96 124.77 36.06C120.55 37.61 117.38 41.34 116.02 45.89C109.84 24.12 86.11 10.51 63.92 16.16C43.25 21.43 16.85 49.25 31.46 71.44C32.31 72.73 34.36 71.44 33.77 70.06C24.25 47.89 45.4 23.88 66.53 19.48C87.39 15.13 108.63 29.11 113.15 49.82C110.67 48.3 107.82 47.34 105 47.18C104.97 46.96 104.9 46.72 104.75 46.48C95.64 30.86 76.68 23.71 59.85 31.31C44.1 38.43 34.39 58.2 42.14 74.52L42.26 74.69C40.32 75.71 38.54 77.08 37.05 78.79C35.76 71.35 26.05 69.37 19.28 71.88C18.6 58.85 18.37 47.07 24.17 34.92ZM141.45 53.34C144.52 46.56 140.77 38.03 133.19 35.85C131.68 35.42 130.23 35.24 128.85 35.28C128.81 35.15 128.77 35.01 128.7 34.87C115.48 7.02 83.48 -6.95 54.2 3.41C40.14 8.38 28.42 18.54 21.59 31.79C15.47 43.64 12.09 59.92 17.06 72.74L17.14 72.87C13.57 74.78 10.61 77.69 10.38 81.97C10.26 84.25 10.91 86.52 12.23 88.28C5.94 88.38 -1.07 91.33 0.13 98.9C1.14 105.31 7.66 106.11 13 104.47C8.64 111.51 8.94 123.21 17.82 125.47C25.85 127.51 36.77 119.66 36.76 111.04C40.07 115.81 47.42 117.14 52.09 113.16C55.74 110.05 56.73 104.13 54.71 99.79C63.07 99.99 69.24 89.31 65.55 81.42C63.4 76.82 59.59 74.08 55.3 73.01C53.82 63.61 56.14 54.2 64.54 48.65C73.68 42.62 89.14 44.11 91.96 56.43C91.99 56.55 92.03 56.66 92.07 56.76C91.05 62.16 95.01 66.86 100.23 69.41C93.82 71.48 90.61 80.06 94.73 86.03C96.99 89.32 100.94 90.95 104.84 89.98C107.16 89.41 109.76 87.82 110.93 85.6C114.8 89.99 121.53 91.45 126.83 88.65C131.45 86.21 134.25 80.57 133.6 75.4C140.63 78.13 148.92 74.15 151.47 66.79C154.24 58.8 148.42 53.92 141.45 53.34Z" fill="#FEB9CC" fill-opacity="1.000000" fill-rule="nonzero"/>
</svg>
