<svg width="135.000000" height="68.000000" viewBox="0 0 135 68" fill="none" xmlns="http://www.w3.org/2000/svg" xmlns:xlink="http://www.w3.org/1999/xlink">
	<desc>
			Created with Pixso.
	</desc>
	<defs/>
	<path id="rocket" d="M0.87 10.76C23.68 -4.27 50.94 -2.56 73.4 9.7C76.41 5.52 81.68 0.49 86.57 1.87C89.53 2.7 92.35 5.62 94.69 7.55C98.64 10.8 102.34 14.33 105.89 18.01C106.7 18.85 106.41 20.46 105.18 20.73C100.44 21.74 95.72 22.32 90.89 22.32C92.3 23.62 93.66 24.96 94.98 26.35C95.34 26.73 95.47 27.15 95.46 27.55C97.36 27.54 99.26 27.57 101.16 27.6C101.46 27.6 101.77 27.61 102.07 27.61C103.12 27.63 103.67 28.55 103.51 29.5C103.49 29.64 103.46 29.78 103.44 29.92C108.33 28.04 113.72 28.15 118.45 30.83C125.31 34.73 127.31 43.3 134.14 47.16C135.2 47.76 135.35 49.62 134.14 50.17C126.41 53.72 122.4 61.15 113.1 61.22C107.15 61.27 101.66 58.77 97.97 54.29C97.83 54.79 97.7 55.3 97.55 55.81C97.29 56.72 96.2 57.2 95.36 56.7C92.39 54.91 89.57 53.01 87.02 50.67C86.15 51.24 85.19 51.7 84.13 52.04C87.18 54.5 94.02 60.35 93.98 64.6C93.94 68.35 89.75 68.09 86.74 67.9C86.14 67.87 85.59 67.83 85.13 67.83C83.85 67.83 82.56 67.83 81.28 67.83C78.71 67.83 76.14 67.83 73.57 67.83C73.04 67.83 72.46 67.86 71.87 67.89C69.72 67.98 67.3 68.09 65.54 67.05C62.02 65 61.79 59.11 62.03 55.41C36.58 53.91 14.63 34.5 0.24 13.14C-0.31 12.33 0.12 11.25 0.87 10.76ZM27.38 4.26C19.44 5.46 11.61 8.23 4.21 12.78C9.43 20.31 15.43 27.65 22.3 33.9C27.86 24.9 30.32 15.45 27.45 4.95C27.38 4.7 27.37 4.48 27.38 4.26ZM92.83 29.18C92.7 29.1 92.58 29 92.46 28.88C76.35 11.81 53.52 1.8 31.14 3.82L31.18 3.92C34.16 14.87 32.27 27.24 24.38 35.72C27.99 38.8 31.83 41.58 35.93 43.92C50.4 52.18 67.02 53.33 83.14 50.33L83.15 50.33C90.52 45.23 91.67 37.65 92.83 29.18L92.83 29.18ZM37.77 20.76C37.39 20.37 37.17 19.82 37.35 19.21C39.16 13 46.38 10.3 52.08 12.97C58.89 16.16 61.02 24.37 58.72 31.13C53.49 46.52 32.03 33.79 37.77 20.76ZM55.65 28.74C56.94 24.04 55.52 18.56 50.94 16.22C46.73 14.06 42.55 16.18 40.59 20.16C39.64 24.32 40.1 28.93 43.43 31.96C45.31 33.66 48.81 35.34 51.43 34.45C53.69 33.69 55.09 30.8 55.65 28.74ZM89.73 62.94C89.1 60.05 83.95 56.21 81.85 54.1C81.5 53.76 81.37 53.38 81.38 53.03C75.47 54.84 69.69 55.61 64.07 55.49C64.4 56.88 64.6 58.39 65.13 59.66C66.45 62.85 68.21 63.99 71.47 64.57C73.67 64.95 76.16 64.82 78.57 64.69C79.74 64.63 80.89 64.57 81.98 64.57C82.58 64.57 83.26 64.6 83.96 64.64C85.44 64.71 87.03 64.8 88.28 64.57C89.52 64.34 89.99 64.51 90.08 64.39C90.16 64.29 89.96 63.96 89.73 62.94ZM101.42 18.15C98.02 14.83 94.49 11.66 90.75 8.73C84.44 3.78 80.39 6.9 75.5 10.89C80.04 13.53 84.36 16.61 88.39 20.08C88.61 19.65 89.02 19.31 89.65 19.3C93.64 19.19 97.53 18.84 101.42 18.15ZM95.18 53.12C97.21 45.67 98.92 38.15 100.29 30.56C98.8 30.53 97.32 30.48 95.84 30.41C95.18 36.84 93.61 44.96 88.64 49.43C90.87 50.57 93.03 51.84 95.18 53.12ZM129.98 48.49C127.49 46.44 125.65 43.9 123.75 41.13C118.7 33.82 111.84 29.51 103.03 33.64L102.75 33.74L102.7 33.96L102.71 33.96C108.81 31.65 112.66 35.95 116.42 40.14C118.11 42.02 119.78 43.88 121.63 45.12C122.4 45.63 122.65 46.75 121.93 47.45C118.56 50.69 114.68 54.13 109.78 54.43C105.62 54.69 101.48 52.85 99.32 49.25C99.13 49.95 98.96 50.65 98.78 51.35C103.32 56.24 110.02 58.86 116.71 57.23C122.09 55.91 125.49 51.38 129.98 48.49ZM115.54 43.08C112.1 39.11 108.4 34.84 103.46 36.68C102.94 36.88 102.51 36.76 102.22 36.48C101.45 40.34 100.6 44.18 99.64 47.99C99.83 47.96 100.04 48 100.22 48.14C103.39 50.62 107.09 52.37 111.18 51.3C114.12 50.53 116.46 48.5 118.65 46.45C117.62 45.48 116.59 44.29 115.54 43.08Z" fill="#FFD787" fill-opacity="1.000000" fill-rule="evenodd"/>
</svg>
