<svg width="56.000000" height="58.000000" viewBox="0 0 56 58" fill="none" xmlns="http://www.w3.org/2000/svg" xmlns:xlink="http://www.w3.org/1999/xlink">
	<desc>
			Created with Pixso.
	</desc>
	<defs/>
	<path id="star" d="M1.07 35.15C6.54 36.68 11.97 38.36 17.41 40.01L17.45 40.17C19.46 45.84 21.78 51.41 23.97 57.02C24.37 58.06 25.81 58.42 26.44 57.34C28.27 54.22 30.16 51.14 31.97 48.01C33.3 45.72 35.05 43.36 35.53 40.74C35.64 40.79 35.76 40.84 35.9 40.87C41.57 41.96 47.28 42.38 53.05 42.01C54.11 41.94 54.72 40.91 54.23 39.96C51.54 34.77 48.4 29.9 44.29 25.71C43.72 25.13 42.69 25.89 43.15 26.59C45.87 30.77 48.54 34.97 50.86 39.38C46.07 39.5 41.36 39.14 36.63 38.22C35.76 38.05 35.14 38.64 34.96 39.3C34.78 39.27 34.6 39.29 34.44 39.4C32.08 41.09 30.84 44.05 29.42 46.52C28.1 48.83 26.81 51.15 25.51 53.47C23.73 48.78 21.99 44.07 20.04 39.45C19.89 39.09 19.63 38.84 19.33 38.71C19.32 38.17 19.03 37.65 18.38 37.45C13.72 36.04 9.06 34.62 4.42 33.13C9.04 29.15 13.85 25.51 18.75 21.86C19.24 21.49 19.31 20.96 19.14 20.54C19.2 20.4 19.24 20.24 19.25 20.06C19.45 14.6 19.34 9.13 19.34 3.66C23.93 6.87 28.5 10.05 33.01 13.37C32.83 14.33 33.92 15.49 35.11 14.93C40.55 12.35 46.12 10.36 51.93 8.94C49.07 14.18 45.66 19.05 42.9 24.33C42.49 25.13 43.48 25.91 44.15 25.29C49.29 20.55 52.8 13.81 55.83 7.6C56.38 6.46 55.47 5.26 54.22 5.52C47.39 6.92 40.83 9.12 34.55 12.12C29.96 7.46 24.49 3.21 18.72 0.15C17.88 -0.29 16.81 0.25 16.81 1.24C16.8 7.51 16.56 13.8 16.73 20.06C16.74 20.22 16.78 20.35 16.83 20.47C10.81 23.62 5.24 27.96 0.42 32.69C-0.38 33.47 0.01 34.86 1.07 35.15Z" fill="#FEB9CC" fill-opacity="1.000000" fill-rule="nonzero"/>
</svg>
